<?xml version="1.0" standalone="no"?>
<!DOCTYPE svg PUBLIC "-//W3C//DTD SVG 20010904//EN"
 "http://www.w3.org/TR/2001/REC-SVG-20010904/DTD/svg10.dtd">
<svg version="1.0" xmlns="http://www.w3.org/2000/svg"
 width="416.000000pt" height="416.000000pt" viewBox="0 0 416.000000 416.000000"
 preserveAspectRatio="xMidYMid meet">
<metadata>
Created by potrace 1.11, written by Peter Selinger 2001-2013
</metadata>
<g transform="translate(0.000000,416.000000) scale(0.100000,-0.100000)"
fill="#000000" stroke="none">
<path d="M2050 4035 c-7 -9 -11 -17 -9 -20 3 -2 10 5 17 15 14 24 10 26 -8 5z"/>
<path d="M1927 4024 c-1 -1 -31 -4 -67 -7 -260 -23 -596 -142 -827 -293 -77
-50 -185 -128 -220 -159 -399 -356 -625 -795 -678 -1317 -4 -45 -3 -58 8 -58
14 0 278 52 329 65 22 6 28 13 28 34 0 36 43 222 70 301 46 138 142 320 229
435 70 93 90 115 169 193 192 188 453 336 707 401 80 20 102 25 182 37 33 5
44 11 48 28 3 11 21 94 39 183 l33 163 -24 -2 c-13 -2 -25 -3 -26 -4z"/>
<path d="M2184 4013 c3 -10 8 -36 12 -58 3 -22 7 -42 9 -45 2 -3 6 -23 10 -45
3 -22 14 -76 24 -120 l17 -80 50 -8 c254 -41 489 -135 685 -273 73 -51 193
-154 232 -198 10 -12 35 -39 55 -61 188 -204 339 -532 377 -821 l6 -51 177
-36 c97 -20 179 -34 184 -31 4 3 6 19 3 37 -2 18 -7 57 -10 87 -3 30 -7 65 -9
76 -2 12 -7 37 -10 55 -22 137 -100 366 -176 519 -46 91 -168 282 -220 345
-253 301 -557 511 -915 630 -144 48 -253 70 -443 90 -59 6 -63 5 -58 -12z"/>
<path d="M2049 3993 c-13 -16 -12 -17 4 -4 9 7 17 15 17 17 0 8 -8 3 -21 -13z"/>
<path d="M2050 3960 c0 -5 5 -10 10 -10 6 0 10 5 10 10 0 6 -4 10 -10 10 -5 0
-10 -4 -10 -10z"/>
<path d="M2031 3937 c2 -1 13 -9 24 -17 19 -14 19 -14 6 3 -7 9 -18 17 -24 17
-6 0 -8 -1 -6 -3z"/>
<path d="M2025 3900 c-3 -5 -1 -18 5 -29 8 -16 6 -22 -7 -30 -10 -6 -13 -11
-7 -11 5 0 20 9 32 20 18 17 20 24 9 40 -13 22 -23 25 -32 10z m29 -32 c-4 -6
-10 -5 -15 3 -14 22 -10 33 6 19 8 -7 12 -17 9 -22z"/>
<path d="M2016 3804 c-9 -8 -16 -20 -16 -26 0 -6 8 0 19 13 17 21 21 22 37 9
18 -14 18 -14 5 3 -17 21 -25 21 -45 1z"/>
<path d="M2026 3774 c-8 -21 -8 -24 5 -24 5 0 7 5 4 10 -3 6 -2 10 3 10 6 0
12 -7 16 -15 3 -10 -1 -15 -11 -15 -9 0 -14 -3 -10 -6 3 -4 13 -4 22 -1 12 5
13 11 3 32 -13 29 -23 32 -32 9z"/>
<path d="M1995 3740 c-5 -9 -4 -11 3 -6 16 10 15 -7 0 -23 -11 -11 -10 -12 2
-5 8 5 24 8 35 7 14 -2 15 -1 5 4 -8 3 -20 13 -26 21 -9 12 -13 12 -19 2z"/>
<path d="M2010 3689 c0 -5 5 -7 10 -4 6 3 10 8 10 11 0 2 -4 4 -10 4 -5 0 -10
-5 -10 -11z"/>
<path d="M2025 3674 c-11 -13 -27 -24 -35 -24 -13 0 -13 -2 -1 -9 10 -6 21 0
39 20 13 17 23 31 21 33 -2 2 -13 -7 -24 -20z"/>
<path d="M1986 3673 c-6 -14 -5 -15 5 -6 7 7 10 15 7 18 -3 3 -9 -2 -12 -12z"/>
<path d="M2038 3643 c7 -3 16 -2 19 1 4 3 -2 6 -13 5 -11 0 -14 -3 -6 -6z"/>
<path d="M1976 3615 c-3 -10 0 -12 11 -8 10 4 14 2 10 -4 -3 -5 0 -10 7 -10
17 0 10 23 -9 31 -7 2 -16 -1 -19 -9z"/>
<path d="M2020 3619 c0 -5 5 -7 10 -4 6 3 10 8 10 11 0 2 -4 4 -10 4 -5 0 -10
-5 -10 -11z"/>
<path d="M2035 3600 c-4 -6 -1 -17 5 -25 9 -11 8 -19 -3 -35 -7 -11 -17 -17
-20 -13 -4 3 -7 2 -7 -3 0 -5 9 -15 20 -22 12 -7 20 -8 20 -2 0 5 -5 10 -10
10 -6 0 -3 11 5 24 13 20 14 29 5 47 -11 19 -10 21 4 16 10 -4 15 -3 11 3 -8
13 -22 13 -30 0z"/>
<path d="M1968 3584 c-8 -8 3 -44 14 -44 5 0 4 8 -1 19 -6 10 -7 21 -4 25 3 3
4 6 1 6 -2 0 -7 -3 -10 -6z"/>
<path d="M1990 3571 c0 -6 7 -8 15 -5 17 7 21 -11 5 -19 -6 -3 -5 -4 2 -3 19
4 16 30 -4 34 -10 2 -18 -1 -18 -7z"/>
<path d="M1980 3520 c0 -5 5 -10 10 -10 6 0 10 5 10 10 0 6 -4 10 -10 10 -5 0
-10 -4 -10 -10z"/>
<path d="M1962 3496 c7 -8 15 -12 17 -11 5 6 -10 25 -20 25 -5 0 -4 -6 3 -14z"/>
<path d="M2003 3494 c9 -3 17 -10 17 -16 0 -5 -7 -8 -15 -4 -8 3 -15 1 -15 -5
0 -6 8 -9 18 -7 24 5 22 32 -3 35 -16 1 -16 1 -2 -3z"/>
<path d="M1954 3471 c1 -17 26 -28 26 -11 0 6 -4 9 -9 5 -5 -3 -11 0 -14 7 -2
9 -4 8 -3 -1z"/>
<path d="M2045 3470 c-14 -16 -16 -23 -7 -32 9 -9 15 -9 25 1 10 10 8 11 -8 5
-19 -8 -20 -7 -2 19 21 32 17 35 -8 7z"/>
<path d="M1940 3444 c0 -5 7 -18 15 -28 8 -11 15 -16 15 -10 0 5 -7 18 -15 28
-8 11 -15 16 -15 10z"/>
<path d="M1997 3437 c4 -6 -1 -8 -11 -4 -10 4 -15 3 -11 -3 9 -14 32 -12 38 3
3 8 -1 14 -9 14 -7 0 -10 -5 -7 -10z"/>
<path d="M2020 3423 c0 -16 25 -23 41 -11 11 8 11 9 -2 5 -9 -3 -22 0 -28 6
-8 8 -11 8 -11 0z"/>
<path d="M1930 3399 c0 -5 5 -7 10 -4 6 3 10 8 10 11 0 2 -4 4 -10 4 -5 0 -10
-5 -10 -11z"/>
<path d="M1980 3398 c0 -4 7 -8 15 -8 8 0 15 4 15 8 0 5 -7 9 -15 9 -8 0 -15
-4 -15 -9z"/>
<path d="M1944 3375 c-4 -8 -11 -12 -18 -8 -6 3 7 -10 29 -30 32 -28 38 -38
28 -48 -16 -16 -17 -29 -3 -29 6 0 9 5 8 11 -2 6 3 14 11 17 8 2 11 0 7 -6 -3
-6 1 -18 10 -27 9 -9 14 -19 10 -22 -3 -4 -12 -1 -18 5 -7 7 -16 12 -21 12 -5
0 2 -10 17 -21 15 -12 25 -24 22 -27 -3 -3 -15 3 -26 13 -11 10 -20 13 -20 8
0 -6 8 -14 17 -17 12 -5 14 -9 5 -18 -7 -7 -12 -16 -12 -22 0 -5 6 -1 14 10
14 19 15 18 43 -6 l28 -25 -25 29 -25 28 25 -6 c14 -3 19 -3 13 0 -9 4 -10 11
-4 23 7 12 4 24 -10 41 -16 20 -18 21 -13 5 6 -16 4 -18 -6 -8 -23 21 -21 49
5 73 27 25 32 40 13 40 -6 0 -9 -3 -5 -6 3 -3 -5 -18 -19 -32 l-24 -27 -25 27
c-25 27 -32 48 -17 48 5 0 15 -11 22 -25 7 -14 17 -25 21 -25 13 0 17 26 7 41
-8 11 -9 10 -4 -4 4 -11 2 -17 -5 -15 -6 2 -10 7 -9 12 2 9 -19 26 -33 26 -4
0 -10 -7 -13 -15z m109 -150 c-5 -13 -23 -22 -23 -11 0 15 14 35 21 31 4 -3 6
-12 2 -20z"/>
<path d="M2020 3379 c0 -5 5 -7 10 -4 6 3 10 8 10 11 0 2 -4 4 -10 4 -5 0 -10
-5 -10 -11z"/>
<path d="M1930 3333 c7 -3 5 -12 -7 -25 -18 -20 -18 -21 5 -7 23 14 25 31 4
35 -8 2 -8 0 -2 -3z"/>
<path d="M2050 3320 c0 -5 5 -10 10 -10 6 0 10 5 10 10 0 6 -4 10 -10 10 -5 0
-10 -4 -10 -10z"/>
<path d="M1943 3290 c-12 -10 -23 -17 -25 -14 -3 2 -5 -3 -5 -11 0 -20 2 -19
32 11 31 30 28 43 -2 14z"/>
<path d="M2030 3302 c0 -4 10 -13 23 -21 22 -14 22 -14 3 8 -20 22 -26 25 -26
13z"/>
<path d="M1943 3255 c-3 -9 -3 -18 -1 -21 3 -3 8 4 11 16 6 23 -1 27 -10 5z"/>
<path d="M1960 3239 c0 -7 -8 -18 -17 -25 -16 -12 -16 -13 -1 -8 14 5 16 0 13
-28 -3 -18 -2 -26 2 -18 3 8 13 21 22 28 14 11 14 11 -1 6 -14 -5 -16 0 -12
25 3 17 3 31 0 31 -3 0 -6 -5 -6 -11z"/>
<path d="M1906 3232 c-3 -5 1 -9 9 -9 8 0 15 4 15 9 0 4 -4 8 -9 8 -6 0 -12
-4 -15 -8z"/>
<path d="M1896 3174 c-3 -7 -3 -20 -1 -30 2 -11 4 -22 4 -26 1 -5 6 -8 13 -8
6 0 19 -7 29 -16 17 -15 20 -15 45 5 15 12 21 21 15 21 -6 0 -3 10 9 22 11 12
18 24 15 26 -8 8 -45 -40 -39 -49 3 -5 1 -9 -5 -9 -15 0 -23 18 -11 25 5 3 10
14 9 23 0 12 -3 11 -9 -5 -7 -16 -14 -21 -27 -16 -12 4 -9 -1 7 -14 14 -12 21
-25 17 -29 -4 -5 -11 -4 -15 2 -4 6 -18 17 -31 24 l-24 13 24 14 c23 13 23 14
2 8 -14 -4 -23 -2 -23 4 0 10 14 15 33 12 4 0 7 3 7 8 0 14 -39 9 -44 -5z"/>
<path d="M2029 3140 c-1 -5 -2 -14 -3 -19 0 -5 -16 -23 -33 -40 -36 -34 -46
-56 -13 -26 20 18 21 18 38 1 16 -17 16 -18 -5 -12 -31 10 -37 -9 -11 -33 18
-17 19 -21 5 -21 -9 0 -22 9 -30 21 l-15 21 -7 -23 c-5 -15 -3 -26 7 -33 8 -6
15 -15 16 -21 2 -18 29 -16 36 2 6 14 5 16 -5 6 -15 -15 -33 -17 -24 -3 3 6
-1 13 -9 16 -9 3 -16 13 -16 21 0 12 2 12 16 -1 22 -23 35 -20 66 16 21 24 25
36 17 50 -6 11 -6 24 0 36 6 12 5 23 -4 35 -14 19 -24 22 -26 7z m25 -19 c8
-12 -30 -58 -39 -49 -4 4 0 14 9 23 9 9 14 21 11 26 -4 5 -2 9 4 9 5 0 12 -4
15 -9z m-1 -65 c3 -8 -3 -22 -14 -32 -19 -17 -21 -17 -37 -1 -16 17 -16 17 8
15 19 -2 24 1 22 15 -3 20 14 23 21 3z"/>
<path d="M1887 3095 c3 -8 9 -12 14 -9 12 7 11 11 -5 17 -10 4 -13 1 -9 -8z"/>
<path d="M1919 3088 c-6 -14 -6 -57 0 -53 8 4 12 55 5 55 -2 0 -5 -1 -5 -2z"/>
<path d="M1880 3056 c-10 -13 -9 -19 4 -31 9 -9 16 -12 16 -6 0 5 -5 13 -11
17 -8 4 -7 9 2 15 7 4 11 11 8 14 -4 3 -12 -1 -19 -9z"/>
<path d="M1940 3059 c0 -5 5 -7 10 -4 6 3 10 8 10 11 0 2 -4 4 -10 4 -5 0 -10
-5 -10 -11z"/>
<path d="M1935 3030 c-3 -5 -1 -10 4 -10 6 0 11 5 11 10 0 6 -2 10 -4 10 -3 0
-8 -4 -11 -10z"/>
<path d="M1863 3002 c0 -9 4 -22 9 -28 11 -15 -1 -46 -15 -37 -5 3 -7 1 -3 -5
3 -6 2 -13 -4 -17 -5 -3 -10 -11 -10 -16 0 -6 12 4 27 21 22 27 25 35 14 51
-6 11 -9 24 -6 29 3 5 2 11 -3 14 -5 3 -9 -3 -9 -12z"/>
<path d="M1910 3011 c0 -5 7 -11 15 -15 8 -3 15 -1 15 3 0 5 -7 11 -15 15 -8
3 -15 1 -15 -3z"/>
<path d="M2050 3000 c-9 -6 -10 -10 -3 -10 6 0 15 5 18 10 8 12 4 12 -15 0z"/>
<path d="M1890 2990 c0 -5 5 -10 11 -10 5 0 7 5 4 10 -3 6 -8 10 -11 10 -2 0
-4 -4 -4 -10z"/>
<path d="M1910 2969 c-12 -8 -10 -9 9 -4 13 4 21 3 19 -1 -3 -5 3 -17 14 -26
22 -22 23 -15 2 17 -18 28 -23 29 -44 14z"/>
<path d="M2030 2971 c0 -17 21 -24 33 -12 9 9 7 10 -7 5 -13 -5 -17 -4 -12 4
4 7 2 12 -3 12 -6 0 -11 -4 -11 -9z"/>
<path d="M1900 2941 c0 -5 -15 -26 -34 -47 -44 -49 -40 -56 6 -10 20 20 33 38
30 41 -3 3 2 5 11 5 9 0 22 -9 30 -20 8 -11 17 -17 20 -13 4 3 7 1 7 -5 0 -6
-9 -17 -21 -25 -11 -8 -16 -18 -11 -21 6 -3 13 2 16 11 6 14 9 14 29 -3 22
-20 22 -20 49 8 15 15 23 28 18 28 -5 0 -12 -4 -15 -10 -9 -14 -23 -13 -28 3
-2 6 -2 2 0 -10 4 -26 -3 -29 -22 -9 -9 9 -11 16 -3 24 7 7 4 12 -11 17 -12 3
-21 10 -21 14 0 4 -11 13 -25 19 -14 6 -25 8 -25 3z"/>
<path d="M2020 2943 c0 -16 25 -23 41 -11 11 8 11 9 -2 5 -9 -3 -22 0 -28 6
-8 8 -11 8 -11 0z"/>
<path d="M1980 2918 c0 -4 7 -8 15 -8 8 0 15 4 15 8 0 5 -7 9 -15 9 -8 0 -15
-4 -15 -9z"/>
<path d="M1876 2866 c-25 -25 -44 -46 -41 -46 3 0 1 -10 -5 -22 -9 -20 -9 -21
2 -4 35 50 66 85 72 79 3 -3 6 -1 6 5 0 7 5 12 11 12 5 0 7 -4 4 -10 -3 -5 -1
-10 4 -10 13 0 14 10 2 28 -6 10 -20 2 -55 -32z"/>
<path d="M2020 2899 c0 -5 5 -7 10 -4 6 3 10 8 10 11 0 2 -4 4 -10 4 -5 0 -10
-5 -10 -11z"/>
<path d="M1894 2849 c-3 -6 0 -15 7 -20 19 -12 29 -11 29 1 0 6 -3 9 -7 9 -20
-3 -26 2 -13 11 9 6 10 10 3 10 -6 0 -15 -5 -19 -11z"/>
<path d="M1960 2834 c0 -8 -4 -12 -10 -9 -5 3 -10 1 -10 -4 0 -6 5 -11 11 -11
5 0 8 -4 5 -9 -3 -5 1 -14 9 -21 10 -9 15 -9 15 -1 0 6 -4 11 -9 11 -5 0 -7
14 -5 30 3 17 3 30 0 30 -3 0 -6 -7 -6 -16z"/>
<path d="M2038 2843 c7 -3 16 -2 19 1 4 3 -2 6 -13 5 -11 0 -14 -3 -6 -6z"/>
<path d="M1862 2805 c-7 -15 -8 -25 -2 -25 6 0 10 7 10 15 0 22 17 18 34 -7
10 -13 16 -17 16 -9 0 9 8 5 20 -9 11 -13 20 -20 20 -16 0 4 -9 19 -20 33 -12
15 -20 20 -20 12 0 -8 -3 -10 -8 -4 -4 6 -14 16 -23 22 -13 11 -18 9 -27 -12z"/>
<path d="M1981 2825 c-1 -14 12 -30 26 -32 7 -2 10 4 7 12 -4 8 -10 13 -14 10
-5 -3 -11 1 -13 7 -3 7 -6 9 -6 3z"/>
<path d="M2020 2819 c0 -5 5 -7 10 -4 6 3 10 8 10 11 0 2 -4 4 -10 4 -5 0 -10
-5 -10 -11z"/>
<path d="M2035 2800 c-4 -6 -2 -17 4 -24 8 -9 7 -21 -5 -44 -17 -35 -38 -51
-63 -47 -9 1 -10 0 -3 -2 7 -3 10 -9 7 -14 -4 -5 -1 -9 4 -9 6 0 11 5 11 12 0
6 11 1 25 -12 17 -16 22 -27 15 -34 -5 -5 -10 -17 -9 -25 0 -10 4 -7 10 7 5
15 13 21 21 16 7 -4 4 2 -6 14 -11 12 -16 25 -13 29 4 4 14 -2 23 -13 14 -18
15 -18 4 4 -8 17 -17 21 -31 17 -11 -4 -19 -2 -19 4 0 6 4 11 8 11 5 0 16 16
25 36 14 27 15 40 6 56 -10 18 -9 20 5 15 10 -4 15 -3 11 3 -8 13 -22 13 -30
0z"/>
<path d="M1887 2769 c4 -13 8 -18 11 -10 2 7 -1 18 -6 23 -8 8 -9 4 -5 -13z"/>
<path d="M1990 2771 c0 -6 7 -8 15 -5 17 7 21 -11 5 -19 -6 -3 -5 -4 2 -3 19
4 16 30 -4 34 -10 2 -18 -1 -18 -7z"/>
<path d="M1828 2763 c6 -2 18 -2 25 0 6 3 1 5 -13 5 -14 0 -19 -2 -12 -5z"/>
<path d="M1873 2720 c0 -30 2 -48 5 -40 3 8 12 21 21 28 15 11 15 13 0 25 -9
6 -18 19 -21 27 -3 8 -5 -10 -5 -40z m27 0 c0 -5 -4 -10 -10 -10 -5 0 -10 5
-10 10 0 6 5 10 10 10 6 0 10 -4 10 -10z"/>
<path d="M1910 2749 c0 -5 5 -7 12 -3 7 5 9 2 5 -9 -4 -11 -2 -14 9 -10 7 3
14 2 14 -2 0 -11 -27 -34 -34 -28 -3 4 -6 3 -6 0 0 -12 38 -46 44 -40 3 3 -1
11 -9 17 -13 10 -11 16 14 43 16 18 26 35 21 38 -4 3 -11 -2 -14 -11 -6 -15
-8 -15 -24 0 -21 19 -32 20 -32 5z"/>
<path d="M1816 2734 c-3 -7 5 -9 20 -6 13 2 24 7 24 11 0 11 -39 7 -44 -5z"/>
<path d="M1985 2720 c3 -4 -1 -11 -7 -13 -7 -3 -8 -6 -2 -6 5 -1 18 5 28 12
16 12 16 13 -4 14 -11 1 -18 -2 -15 -7z"/>
<path d="M2052 2710 c-7 -11 -8 -20 -3 -20 9 0 24 30 18 36 -1 2 -8 -6 -15
-16z"/>
<path d="M1816 2695 c-13 -20 -13 -25 -1 -35 12 -10 13 -16 4 -26 -7 -9 -8
-14 -1 -14 17 0 22 29 6 44 -8 8 -10 17 -5 21 5 3 12 1 16 -5 3 -5 12 -10 18
-10 7 0 4 5 -5 11 -10 5 -18 15 -18 21 0 7 5 6 15 -2 9 -7 15 -8 15 -2 0 21
-29 20 -44 -3z"/>
<path d="M1888 2672 c-5 -16 -11 -20 -25 -16 -15 5 -15 4 -3 -5 18 -12 45 9
38 30 -3 8 -7 5 -10 -9z"/>
<path d="M1892 2642 c-28 -29 -24 -40 5 -12 12 10 24 16 27 13 3 -4 6 -1 6 5
0 21 -15 18 -38 -6z"/>
<path d="M1961 2643 c3 -20 -2 -26 -11 -13 -6 9 -10 10 -10 3 0 -19 21 -27 31
-12 12 19 11 29 -1 29 -5 0 -9 -3 -9 -7z"/>
<path d="M1997 2643 c9 -3 7 -11 -7 -26 -11 -11 -18 -23 -15 -25 3 -3 14 5 25
18 20 23 19 41 -3 39 -9 0 -9 -2 0 -6z"/>
<path d="M1840 2621 c-5 -11 -18 -18 -27 -17 -10 2 -12 1 -5 -1 6 -3 12 -8 12
-13 0 -5 9 -14 20 -20 16 -9 18 -8 14 5 -3 8 -10 12 -15 9 -5 -3 -9 -1 -9 5 0
22 18 18 44 -10 15 -16 32 -29 37 -29 6 0 8 -4 5 -8 -3 -5 1 -9 9 -9 23 0 17
10 -28 43 -23 17 -41 38 -41 47 2 22 -3 21 -16 -2z"/>
<path d="M1908 2616 c-24 -18 -23 -21 16 -45 26 -16 33 -27 30 -44 -2 -12 -1
-16 2 -9 3 7 17 25 30 39 13 14 24 31 24 36 0 6 -6 2 -14 -8 -13 -18 -15 -18
-44 7 -17 14 -28 29 -25 32 11 11 -1 6 -19 -8z m67 -56 c10 -16 -4 -11 -40 13
-19 13 -32 27 -29 30 7 7 59 -26 69 -43z"/>
<path d="M2040 2601 c0 -6 -11 -22 -25 -37 -14 -15 -25 -32 -25 -37 0 -6 6 -2
14 9 14 19 15 18 43 -6 l28 -25 -29 33 c-17 17 -25 32 -18 32 6 0 14 -4 17
-10 3 -5 10 -10 16 -10 5 0 9 5 9 10 0 6 -6 9 -12 8 -8 -2 -12 6 -10 20 2 12
1 22 -2 22 -3 0 -6 -4 -6 -9z"/>
<path d="M1788 2583 c7 -3 16 -2 19 1 4 3 -2 6 -13 5 -11 0 -14 -3 -6 -6z"/>
<path d="M1800 2564 c0 -3 8 -17 19 -30 l18 -23 19 20 c17 19 19 19 31 3 7
-10 13 -13 13 -7 0 6 -6 16 -14 22 -11 9 -17 8 -29 -4 -20 -19 -31 -19 -24 -1
4 11 1 13 -10 9 -11 -4 -14 -2 -9 5 4 7 2 12 -3 12 -6 0 -11 -3 -11 -6z"/>
<path d="M1780 2535 c7 -8 17 -15 22 -15 5 0 3 7 -6 15 -8 8 -18 15 -22 15 -3
0 -1 -7 6 -15z"/>
<path d="M1875 2508 c2 -11 -10 -26 -31 -39 -19 -11 -32 -25 -28 -30 3 -5 -3
-9 -13 -9 -15 0 -16 -2 -3 -10 14 -9 33 6 25 20 -2 3 14 17 36 30 21 14 39 28
39 33 0 4 -4 6 -9 2 -5 -3 -11 0 -14 7 -2 7 -3 5 -2 -4z"/>
<path d="M1968 2512 c-5 -16 -11 -20 -25 -15 -12 4 -10 0 7 -14 14 -12 22 -24
18 -28 -4 -4 -17 2 -29 14 -15 14 -27 18 -38 11 -26 -14 -71 -62 -71 -76 0 -7
-6 -15 -12 -18 -7 -3 -4 -4 6 -3 10 1 21 -4 24 -12 2 -8 0 -11 -5 -8 -5 3 -10
-1 -10 -9 0 -9 4 -11 10 -5 5 5 17 7 25 3 11 -4 9 2 -6 18 -28 30 -28 32 4 69
26 32 50 35 78 12 13 -11 20 -10 42 8 15 12 21 21 15 21 -6 0 -3 10 9 22 11
12 18 24 15 26 -8 8 -45 -40 -39 -49 3 -5 1 -9 -4 -9 -16 0 -22 13 -11 26 6 7
9 19 7 26 -3 7 -7 2 -10 -10z"/>
<path d="M1775 2503 c1 -10 -2 -27 -7 -38 -8 -19 -8 -19 5 -2 15 18 32 24 22
7 -3 -5 -1 -10 4 -10 16 0 13 20 -4 26 -8 4 -13 10 -10 14 3 5 1 11 -4 14 -5
4 -8 -2 -6 -11z"/>
<path d="M1910 2510 c0 -5 7 -7 15 -4 8 4 15 8 15 10 0 2 -7 4 -15 4 -8 0 -15
-4 -15 -10z"/>
<path d="M1805 2500 c3 -5 8 -10 11 -10 2 0 4 5 4 10 0 6 -5 10 -11 10 -5 0
-7 -4 -4 -10z"/>
<path d="M1836 2494 c-22 -21 -20 -27 4 -12 11 7 20 16 20 20 0 12 -7 10 -24
-8z"/>
<path d="M2029 2500 c-1 -5 -2 -14 -3 -19 0 -5 -16 -23 -33 -40 -36 -34 -46
-56 -13 -26 20 18 21 18 38 1 16 -17 16 -18 -5 -12 -31 10 -37 -9 -11 -33 18
-17 19 -21 5 -21 -9 0 -22 9 -30 21 l-15 21 -7 -23 c-5 -15 -3 -26 7 -33 8 -6
15 -15 16 -21 2 -18 29 -16 36 2 6 14 5 16 -5 6 -15 -15 -33 -17 -24 -3 3 6
-1 13 -9 16 -9 3 -16 13 -16 21 0 12 2 12 16 -1 20 -21 36 -20 55 2 27 32 33
48 10 28 -20 -19 -23 -19 -39 -3 -16 17 -16 17 8 15 19 -2 24 1 22 15 -2 9 2
17 8 17 5 0 10 -4 10 -10 0 -5 5 -10 11 -10 8 0 8 4 0 14 -9 10 -9 20 -3 33 7
13 6 24 -3 36 -14 19 -24 22 -26 7z m25 -19 c8 -12 -30 -58 -39 -49 -4 4 0 14
9 23 9 9 14 21 11 26 -4 5 -2 9 4 9 5 0 12 -4 15 -9z"/>
<path d="M1770 2435 c-19 -22 -8 -25 13 -3 9 10 13 18 8 18 -5 0 -14 -7 -21
-15z"/>
<path d="M1906 2425 c20 -31 22 -31 22 1 0 18 -3 22 -9 13 -6 -10 -9 -11 -9
-1 0 6 -5 12 -10 12 -6 0 -3 -11 6 -25z"/>
<path d="M1867 2423 c-10 -10 -8 -33 3 -33 5 0 7 8 3 18 -5 13 -1 12 16 -5 29
-30 36 -29 14 2 -19 26 -26 29 -36 18z"/>
<path d="M1940 2419 c0 -5 5 -7 10 -4 6 3 10 8 10 11 0 2 -4 4 -10 4 -5 0 -10
-5 -10 -11z"/>
<path d="M1714 2399 c-2 -5 -12 -5 -21 -2 -9 4 -14 2 -11 -3 4 -5 -10 -10 -30
-10 -21 -1 -55 -5 -77 -9 -22 -5 -48 -8 -58 -9 -11 0 -15 -6 -12 -15 4 -10 2
-11 -7 -4 -15 13 -80 5 -72 -8 3 -5 0 -9 -5 -9 -6 0 -11 5 -11 11 0 5 -6 7
-12 3 -12 -7 -52 -14 -100 -17 -10 -1 -18 -4 -18 -7 0 -3 -21 -6 -47 -8 -26
-1 -50 -6 -53 -10 -3 -4 -23 -8 -45 -10 -22 -1 -47 -5 -55 -8 -8 -4 -31 -7
-50 -9 -19 -2 -46 -6 -60 -10 -14 -4 -33 -7 -42 -7 -21 1 -23 -9 -5 -28 10
-12 9 -12 -4 -2 -9 6 -20 8 -24 4 -5 -4 -5 -1 -1 6 5 8 0 12 -14 12 -16 0 -20
-4 -16 -16 5 -14 4 -15 -9 -4 -12 10 -18 10 -32 -1 -10 -8 -14 -9 -10 -2 6 9
-3 10 -30 6 -21 -3 -40 -9 -43 -12 -3 -3 -23 -7 -45 -9 -22 -1 -42 -7 -43 -13
-3 -6 -10 -5 -20 3 -14 11 -15 10 -9 -6 6 -15 5 -17 -7 -7 -7 6 -20 9 -27 6
-8 -3 -27 -7 -44 -9 -106 -13 -224 -40 -218 -50 4 -7 1 -6 -7 1 -15 14 -42 6
-33 -11 4 -7 2 -7 -7 1 -22 21 -108 -5 -94 -29 3 -5 13 -4 22 4 12 10 14 10 8
1 -4 -8 -1 -13 9 -13 9 0 14 4 10 9 -3 5 -1 13 5 16 6 4 9 1 8 -6 -2 -6 10
-13 25 -16 16 -2 26 0 24 5 -3 4 -1 14 4 22 8 12 9 11 7 -5 -2 -12 4 -21 16
-23 11 -2 16 0 12 7 -4 6 -2 11 3 11 6 0 11 -4 11 -10 0 -5 7 -10 16 -10 8 0
12 5 9 10 -3 6 -1 10 4 10 6 0 11 -4 11 -10 0 -5 7 -10 16 -10 8 0 12 5 9 10
-3 6 -1 10 4 10 6 0 11 -4 11 -10 0 -5 7 -10 16 -10 11 0 14 6 10 18 -5 14 -4
14 9 -2 11 -14 15 -16 15 -5 0 9 3 10 8 4 8 -13 55 -18 47 -6 -2 5 2 14 10 21
8 7 13 16 10 20 -3 5 -1 11 4 14 13 8 8 -19 -7 -36 -16 -20 -3 -31 16 -15 13
9 14 9 8 0 -4 -8 -1 -13 9 -13 9 0 13 5 10 10 -3 6 -1 10 4 10 6 0 11 -4 11
-8 0 -4 11 -9 24 -10 19 -1 24 3 21 16 -2 12 4 18 18 19 20 2 20 1 4 -8 -9 -6
-15 -15 -11 -20 3 -6 12 -5 22 3 12 10 14 10 8 1 -4 -8 -1 -13 9 -13 9 0 13 5
10 10 -3 6 -1 10 4 10 6 0 11 -3 11 -8 0 -4 25 -8 55 -8 30 -1 53 2 50 5 -2 4
1 13 6 21 8 12 9 11 7 -5 -2 -15 4 -21 26 -23 24 -3 28 -1 22 15 -6 17 -5 17
8 1 13 -18 36 -25 36 -11 0 3 -6 14 -13 23 -6 9 -2 5 11 -8 13 -13 22 -18 22
-10 0 8 3 9 8 3 8 -13 55 -18 47 -6 -2 5 2 14 10 21 8 7 13 16 10 20 -3 5 -1
11 4 14 13 8 8 -19 -7 -36 -16 -20 -3 -31 16 -15 13 9 14 9 8 0 -4 -8 -1 -13
9 -13 9 0 13 5 10 10 -3 6 -1 10 4 10 6 0 11 -4 11 -8 0 -4 11 -9 24 -10 19
-1 24 3 21 16 -2 14 3 18 26 18 16 0 26 -2 23 -5 -3 -3 -12 -6 -20 -6 -25 0
-15 -19 12 -22 14 -2 23 0 20 5 -3 5 1 9 9 9 8 0 12 -4 9 -9 -3 -4 -1 -8 5 -8
5 0 12 6 14 13 4 10 6 10 6 0 1 -7 5 -13 10 -13 5 0 8 11 7 25 -2 13 1 22 6
19 5 -3 7 -13 6 -22 -2 -11 5 -18 21 -20 16 -3 21 0 16 8 -5 7 1 7 14 -2 18
-11 23 -11 31 2 6 10 10 11 10 3 0 -7 4 -13 9 -13 6 0 8 8 6 18 -2 12 3 18 17
19 20 2 20 1 2 -12 -11 -8 -17 -15 -14 -15 37 -8 50 -9 46 -2 -3 5 1 9 9 9 8
0 12 -4 9 -9 -3 -4 2 -8 11 -8 9 0 13 5 10 11 -4 6 3 5 14 -3 18 -11 23 -11
31 2 6 10 10 11 10 3 0 -7 4 -13 9 -13 6 0 8 8 6 18 -2 12 4 18 18 19 20 2 20
1 4 -8 -21 -12 -13 -29 14 -29 11 0 18 4 15 8 -3 5 1 9 9 9 8 0 12 -4 9 -9 -3
-4 2 -8 11 -8 9 0 13 5 10 11 -4 6 3 5 14 -3 18 -11 23 -11 31 2 6 10 10 11
10 3 0 -7 4 -13 9 -13 6 0 8 8 6 18 -2 12 3 18 17 19 20 2 20 1 2 -12 -11 -8
-17 -15 -14 -15 37 -8 50 -9 46 -2 -2 4 4 8 14 8 10 0 16 -4 14 -8 -3 -4 2 -8
11 -8 10 0 13 5 9 12 -5 7 -3 8 7 2 8 -5 24 -10 36 -12 17 -2 21 2 18 16 -2
12 3 18 18 19 20 2 20 1 4 -8 -21 -12 -13 -29 14 -29 12 0 17 4 14 11 -4 6 3
5 14 -3 18 -11 23 -11 31 2 6 10 10 11 10 3 0 -7 5 -13 11 -13 5 0 8 4 5 9 -3
5 2 15 12 22 15 13 16 12 3 -3 -7 -10 -12 -19 -10 -19 2 -1 16 -3 31 -4 20 -3
25 0 21 11 -3 7 -9 11 -14 8 -5 -3 -9 0 -9 6 0 15 -26 41 -34 33 -3 -4 -6 -1
-6 6 0 17 -26 42 -35 33 -5 -4 -5 -2 -2 4 4 7 1 17 -7 23 -8 7 -16 8 -18 4 -3
-4 -4 -3 -2 4 3 12 -34 50 -45 46 -3 -2 -6 3 -6 10 0 6 -8 11 -18 11 -9 -1
-14 3 -11 8 8 12 -66 89 -78 82 -4 -3 -5 1 -2 9 5 14 -23 20 -32 6z m-47 -46
c0 -9 -4 -10 -14 -2 -7 6 -13 12 -13 14 0 1 6 2 13 2 8 0 14 -6 14 -14z m-87
-7 c0 -2 -8 -10 -17 -17 -16 -13 -17 -12 -4 4 13 16 21 21 21 13z m26 -22 c1
-9 0 -13 -3 -10 -4 3 -13 0 -22 -6 -12 -10 -12 -7 2 8 9 11 15 24 12 27 -3 4
-2 5 2 2 4 -3 8 -13 9 -21z m35 9 c13 -16 12 -17 -3 -4 -10 7 -18 15 -18 17 0
8 8 3 21 -13z m99 13 c0 -2 -8 -10 -17 -17 -16 -13 -17 -12 -4 4 13 16 21 21
21 13z m47 -10 c4 -4 1 -6 -7 -4 -9 2 -14 -3 -12 -12 2 -8 0 -11 -4 -7 -4 4
-9 14 -10 21 -2 14 20 16 33 2z m-299 -21 c-3 -3 -9 2 -12 12 -6 14 -5 15 5 6
7 -7 10 -15 7 -18z m-193 -15 c-3 -5 -12 -10 -18 -10 -7 0 -6 4 3 10 19 12 23
12 15 0z m239 -2 c-3 -4 -9 -8 -15 -8 -5 0 -9 4 -9 8 0 5 7 9 15 9 8 0 12 -4
9 -9z m160 0 c-3 -4 -9 -8 -15 -8 -5 0 -9 4 -9 8 0 5 7 9 15 9 8 0 12 -4 9 -9z
m-316 -7 c16 12 16 12 0 -6 -18 -19 -18 -19 -35 0 -17 18 -17 18 0 6 14 -11
20 -11 35 0z m92 5 c0 -2 -8 -10 -17 -17 -16 -13 -17 -12 -4 4 13 16 21 21 21
13z m147 -13 c-14 -14 -19 -15 -29 -4 -11 10 -10 11 3 6 10 -4 20 -2 24 4 3 6
9 11 13 11 3 0 -1 -8 -11 -17z m134 0 c13 -16 12 -17 -3 -4 -10 7 -18 15 -18
17 0 8 8 3 21 -13z m-421 -18 c14 -19 14 -19 -2 -6 -10 7 -18 18 -18 24 0 6 1
8 3 6 1 -2 9 -13 17 -24z m91 8 c13 -16 12 -17 -3 -4 -10 7 -18 15 -18 17 0 8
8 3 21 -13z m147 -4 c9 -12 9 -16 -1 -16 -7 0 -14 9 -14 20 -1 11 -1 18 0 16
2 -2 8 -11 15 -20z m93 4 c13 -16 12 -17 -3 -4 -10 7 -18 15 -18 17 0 8 8 3
21 -13z m69 -8 c14 -19 14 -19 -2 -6 -10 7 -18 18 -18 24 0 6 1 8 3 6 1 -2 9
-13 17 -24z m-600 11 c0 -2 -8 -10 -17 -17 -16 -13 -17 -12 -4 4 13 16 21 21
21 13z m-64 -31 c-1 -8 -5 -17 -8 -21 -5 -4 -4 16 1 34 3 9 9 -1 7 -13z m77 0
c-3 -9 -8 -14 -10 -11 -3 3 -2 9 2 15 9 16 15 13 8 -4z m625 -10 c-3 -3 -9 2
-12 12 -6 14 -5 15 5 6 7 -7 10 -15 7 -18z m-812 -13 c-17 -16 -18 -16 -5 5 7
12 15 20 18 17 3 -2 -3 -12 -13 -22z m770 16 c3 -4 -2 -5 -13 -4 -10 2 -25 -2
-33 -8 -13 -9 -13 -9 -2 6 12 16 35 18 48 6z m124 8 c0 -3 -4 -8 -10 -11 -5
-3 -10 -1 -10 4 0 6 5 11 10 11 6 0 10 -2 10 -4z m-679 -23 c13 -16 12 -17 -3
-4 -10 7 -18 15 -18 17 0 8 8 3 21 -13z m119 -7 c-7 -7 -13 -7 -20 0 -6 6 -3
10 10 10 13 0 16 -4 10 -10z m38 -5 c-7 -9 -13 -18 -15 -20 -1 -2 -1 5 0 16 0
11 7 20 14 20 10 0 10 -4 1 -16z m160 0 c-7 -9 -13 -18 -15 -20 -1 -2 -1 5 0
16 0 11 7 20 14 20 10 0 10 -4 1 -16z m160 0 c-7 -9 -13 -18 -15 -20 -1 -2 -1
5 0 16 0 11 7 20 14 20 10 0 10 -4 1 -16z m-719 -18 c2 -1 -5 -1 -16 0 -11 0
-20 7 -20 14 0 10 4 10 16 1 9 -7 18 -13 20 -15z m61 23 c0 -2 -8 -10 -17 -17
-16 -13 -17 -12 -4 4 13 16 21 21 21 13z m-123 -23 c0 -10 -4 -10 -16 -1 -9 7
-18 13 -20 15 -2 1 5 1 16 0 11 0 20 -7 20 -14z m154 0 c13 -16 12 -17 -3 -4
-10 7 -18 15 -18 17 0 8 8 3 21 -13z m86 0 c0 -10 -4 -10 -16 -1 -9 7 -18 13
-20 15 -2 1 5 1 16 0 11 0 20 -7 20 -14z m108 7 c-3 -5 -12 -10 -18 -10 -7 0
-6 4 3 10 19 12 23 12 15 0z m32 -8 c0 -10 -6 -19 -13 -19 -9 0 -9 5 -1 19 7
10 13 18 14 18 1 0 1 -8 0 -18z m134 1 c13 -17 13 -17 -6 -3 -11 8 -22 16 -24
17 -2 2 0 3 6 3 6 0 17 -8 24 -17z m160 0 c13 -17 13 -17 -6 -3 -11 8 -22 16
-24 17 -2 2 0 3 6 3 6 0 17 -8 24 -17z m160 0 c13 -17 13 -17 -6 -3 -11 8 -22
16 -24 17 -2 2 0 3 6 3 6 0 17 -8 24 -17z m-1011 3 c0 -2 -8 -10 -17 -17 -16
-13 -17 -12 -4 4 13 16 21 21 21 13z m480 0 c0 -2 -8 -10 -17 -17 -16 -13 -17
-12 -4 4 13 16 21 21 21 13z m-359 -19 c-6 -8 -8 -16 -5 -19 3 -3 1 -9 -4 -12
-6 -3 -9 0 -8 6 2 16 15 38 23 38 3 0 0 -6 -6 -13z m264 -34 c-18 -17 -18 -17
-6 0 11 14 11 20 0 35 -12 16 -12 16 6 0 19 -18 19 -18 0 -35z m379 39 c3 -5
-1 -9 -9 -9 -8 0 -15 4 -15 9 0 4 4 8 9 8 6 0 12 -4 15 -8z m160 0 c3 -5 -1
-9 -9 -9 -8 0 -15 4 -15 9 0 4 4 8 9 8 6 0 12 -4 15 -8z m160 -4 c-3 -4 -9 -8
-15 -8 -5 0 -9 4 -9 8 0 5 7 9 15 9 8 0 12 -4 9 -9z m156 -23 c0 -5 -5 -3 -10
5 -5 8 -10 20 -10 25 0 6 5 3 10 -5 5 -8 10 -19 10 -25z m-1335 -13 c-17 -15
-18 -15 -6 0 7 9 9 23 5 30 -6 10 -4 11 7 0 11 -10 10 -15 -6 -30z m345 23
c-7 -8 -17 -15 -23 -15 -6 0 -2 7 9 15 25 19 30 19 14 0z m-396 -4 c-9 -9 -34
-9 -34 -1 0 5 9 8 20 7 10 -1 17 -3 14 -6z m163 -6 c0 -8 -4 -12 -9 -9 -4 3
-8 9 -8 15 0 5 4 9 8 9 5 0 9 -7 9 -15z m49 3 c3 -4 -1 -5 -10 -4 -8 1 -18 5
-22 8 -3 4 1 5 10 4 8 -1 18 -5 22 -8z m268 3 c-7 -8 -54 -9 -49 -1 2 3 15 6
29 6 14 0 23 -2 20 -5z m163 -6 c0 -8 -4 -12 -9 -9 -4 3 -8 9 -8 15 0 5 4 9 8
9 5 0 9 -7 9 -15z m234 -2 c13 -16 12 -17 -3 -4 -10 7 -18 15 -18 17 0 8 8 3
21 -13z m160 0 c13 -16 12 -17 -3 -4 -10 7 -18 15 -18 17 0 8 8 3 21 -13z
m160 0 c13 -16 12 -17 -3 -4 -10 7 -18 15 -18 17 0 8 8 3 21 -13z m80 0 c12
-16 12 -17 -2 -6 -9 7 -19 10 -22 6 -4 -3 -7 -1 -7 5 0 17 16 15 31 -5z m80 0
c13 -16 12 -17 -3 -4 -10 7 -18 15 -18 17 0 8 8 3 21 -13z m-1485 -15 c3 -4
-1 -5 -10 -4 -8 1 -18 5 -22 8 -3 4 1 5 10 4 8 -1 18 -5 22 -8z m352 -8 c-7
-10 -14 -17 -17 -15 -4 4 18 35 25 35 2 0 -1 -9 -8 -20z m-257 -7 c13 -16 12
-17 -3 -4 -10 7 -18 15 -18 17 0 8 8 3 21 -13z m311 5 c-14 -14 -44 -20 -36
-7 3 5 9 7 14 4 5 -3 11 -1 15 5 3 5 9 10 13 10 3 0 1 -5 -6 -12z m169 -5 c13
-16 12 -17 -3 -4 -10 7 -18 15 -18 17 0 8 8 3 21 -13z"/>
<path d="M1786 2395 c4 -8 8 -15 10 -15 2 0 4 7 4 15 0 8 -4 15 -10 15 -5 0
-7 -7 -4 -15z"/>
<path d="M1935 2390 c-3 -5 -1 -10 4 -10 6 0 11 5 11 10 0 6 -2 10 -4 10 -3 0
-8 -4 -11 -10z"/>
<path d="M2400 2385 c-7 -9 -8 -15 -2 -15 5 0 12 7 16 15 3 8 4 15 2 15 -2 0
-9 -7 -16 -15z"/>
<path d="M2450 2390 c0 -5 5 -10 11 -10 5 0 7 5 4 10 -3 6 -8 10 -11 10 -2 0
-4 -4 -4 -10z"/>
<path d="M2422 2370 c-7 -12 -17 -18 -22 -15 -5 3 -11 1 -14 -4 -12 -20 12
-20 32 0 12 11 22 14 22 8 0 -6 -8 -18 -17 -25 -16 -13 -17 -15 -2 -26 9 -7
19 -20 22 -28 4 -9 5 -5 3 8 -4 23 29 56 46 46 4 -3 8 0 8 5 0 17 -15 13 -44
-10 -15 -12 -30 -18 -33 -15 -4 3 2 12 12 20 15 11 17 18 10 35 l-10 21 -13
-20z"/>
<path d="M2478 2376 c-10 -7 -18 -17 -18 -22 0 -4 5 -3 12 4 8 8 17 8 30 1 23
-12 48 -5 48 13 0 10 -2 10 -9 -1 -5 -8 -16 -11 -30 -6 -12 3 -19 11 -16 16 8
12 3 11 -17 -5z"/>
<path d="M2515 2380 c3 -5 8 -10 11 -10 2 0 4 5 4 10 0 6 -5 10 -11 10 -5 0
-7 -4 -4 -10z"/>
<path d="M1885 2370 c11 -5 16 -9 10 -9 -5 -1 2 -9 18 -19 15 -10 26 -20 24
-23 -2 -2 5 -12 15 -21 34 -33 18 -2 -20 40 -22 23 -45 42 -53 41 -8 0 -6 -4
6 -9z"/>
<path d="M1925 2360 c3 -5 8 -10 11 -10 2 0 4 5 4 10 0 6 -5 10 -11 10 -5 0
-7 -4 -4 -10z"/>
<path d="M2050 2360 c-9 -6 -10 -10 -3 -10 6 0 15 5 18 10 8 12 4 12 -15 0z"/>
<path d="M2552 2349 c-13 -21 -7 -43 9 -34 5 4 9 2 9 -4 0 -5 -4 -12 -9 -15
-11 -7 -43 28 -34 37 3 4 1 7 -5 7 -18 0 -15 -13 8 -38 24 -26 26 -36 4 -28
-20 8 -54 -20 -53 -43 0 -13 2 -14 6 -1 7 17 29 40 38 40 3 0 3 -9 0 -20 -4
-12 -2 -20 5 -20 6 0 9 4 6 8 -3 5 8 23 24 40 22 24 25 33 16 41 -7 6 -16 8
-19 4 -4 -3 -7 -1 -7 5 0 23 19 21 39 -4 12 -15 21 -23 21 -18 0 5 -10 21 -23
36 -22 26 -23 26 -35 7z"/>
<path d="M2589 2361 c7 -5 17 -15 22 -22 6 -10 8 -8 7 7 -1 12 -10 21 -22 22
-15 1 -17 -1 -7 -7z"/>
<path d="M2630 2364 c0 -5 9 -15 21 -22 12 -7 18 -16 15 -19 -3 -3 -12 0 -21
7 -8 7 -15 9 -15 4 0 -5 12 -17 28 -26 15 -10 35 -23 44 -30 15 -10 20 -9 33
7 19 24 41 63 30 53 -5 -4 -14 -3 -22 3 -8 8 -13 8 -13 1 0 -6 6 -12 13 -15 6
-2 8 -8 4 -13 -4 -4 -19 4 -33 19 -14 15 -28 27 -31 27 -4 0 4 -11 17 -25 27
-28 14 -34 -16 -7 -38 33 -54 44 -54 36z m65 -55 c4 -6 13 -8 21 -5 8 3 14 1
14 -4 0 -19 -19 -19 -41 0 -13 11 -19 19 -12 20 6 0 15 -5 18 -11z"/>
<path d="M2353 2343 c4 -3 2 -12 -4 -20 -9 -9 -8 -13 0 -13 6 0 11 6 11 13 0
8 4 7 10 -3 11 -17 13 -10 4 14 -3 9 -11 16 -17 16 -6 0 -7 -3 -4 -7z"/>
<path d="M1850 2332 c0 -15 59 -59 64 -48 3 7 12 2 24 -11 11 -12 21 -21 23
-19 2 2 12 -7 22 -20 10 -13 13 -24 7 -24 -5 0 -10 -5 -10 -11 0 -8 4 -8 14 0
10 8 16 9 21 1 3 -5 1 -10 -6 -10 -7 0 -9 -3 -5 -7 4 -4 18 6 31 21 27 31 31
46 14 46 -5 0 -8 -4 -5 -9 3 -5 -1 -14 -9 -21 -13 -10 -19 -9 -35 5 -11 10
-17 22 -14 26 3 5 1 9 -4 9 -5 0 -19 9 -32 20 -13 12 -29 19 -36 16 -7 -3 -24
6 -38 19 -14 13 -26 21 -26 17z"/>
<path d="M1886 2325 c10 -8 24 -14 29 -14 6 0 1 6 -9 14 -11 8 -24 15 -30 15
-5 0 -1 -7 10 -15z"/>
<path d="M2030 2331 c0 -17 21 -24 33 -12 9 9 7 10 -7 5 -13 -5 -17 -4 -12 4
4 7 2 12 -3 12 -6 0 -11 -4 -11 -9z"/>
<path d="M2790 2330 c-8 -5 -11 -10 -6 -10 5 0 -1 -9 -14 -20 -13 -11 -19 -20
-13 -20 10 0 34 24 47 48 9 14 6 15 -14 2z"/>
<path d="M2797 2295 c-15 -19 -25 -35 -21 -35 7 0 28 25 45 53 15 27 7 20 -24
-18z"/>
<path d="M2390 2315 c0 -5 5 -17 10 -25 5 -8 10 -10 10 -5 0 6 -5 17 -10 25
-5 8 -10 11 -10 5z"/>
<path d="M2470 2310 c-8 -5 -12 -11 -9 -14 2 -3 11 -1 19 4 8 5 12 11 9 14 -2
3 -11 1 -19 -4z"/>
<path d="M2835 2310 c-3 -5 -1 -10 4 -10 6 0 11 5 11 10 0 6 -2 10 -4 10 -3 0
-8 -4 -11 -10z"/>
<path d="M2915 2296 c32 -27 43 -30 62 -18 9 5 6 12 -10 21 -21 13 -21 13 -7
-4 14 -17 13 -18 -3 -12 -10 4 -21 7 -23 7 -3 0 -2 6 2 13 4 6 4 9 -1 5 -4 -4
-17 -3 -29 3 -13 7 -10 1 9 -15z"/>
<path d="M2020 2303 c0 -16 25 -23 41 -11 11 8 11 9 -2 5 -9 -3 -22 0 -28 6
-8 8 -11 8 -11 0z"/>
<path d="M2311 2296 c-8 -10 -9 -16 -1 -21 5 -3 10 -11 10 -17 0 -7 -6 -6 -15
2 -11 9 -15 9 -15 1 0 -7 -4 -10 -8 -7 -4 2 -9 -5 -9 -17 -2 -20 -1 -20 8 -4
6 9 15 17 21 17 7 0 6 -5 -2 -15 -11 -13 -2 -21 15 -12 2 1 10 -6 18 -17 9
-13 20 -16 35 -12 20 7 20 8 -11 35 -27 25 -29 31 -18 45 7 9 20 16 29 16 8 0
13 -3 9 -6 -3 -3 9 -18 26 -34 27 -24 29 -30 18 -44 -7 -9 -20 -16 -27 -16 -8
0 -14 -4 -14 -10 0 -6 10 -5 25 2 14 6 25 15 25 19 0 4 8 10 18 13 17 6 26 46
10 46 -4 0 -8 -10 -8 -22 -1 -20 -5 -18 -38 20 -41 46 -53 50 -72 27 -7 -8
-17 -12 -22 -9 -6 4 -5 10 3 15 7 4 11 11 8 14 -4 3 -12 -1 -18 -9z m46 -95
c-5 -2 -14 4 -19 13 -5 9 -13 14 -19 11 -10 -7 -12 8 -2 19 4 3 17 -4 28 -16
12 -13 18 -25 12 -27z"/>
<path d="M2500 2300 c0 -5 5 -10 11 -10 5 0 7 5 4 10 -3 6 -8 10 -11 10 -2 0
-4 -4 -4 -10z"/>
<path d="M2620 2303 c0 -5 10 -13 23 -18 12 -6 22 -19 22 -30 0 -16 7 -20 37
-21 26 0 35 3 31 13 -3 7 -9 13 -15 13 -5 0 -6 -4 -3 -10 11 -18 -6 -10 -28
13 -25 27 -67 52 -67 40z m70 -53 c0 -5 -5 -10 -11 -10 -5 0 -7 5 -4 10 3 6 8
10 11 10 2 0 4 -4 4 -10z"/>
<path d="M2860 2302 c0 -5 -9 -19 -20 -32 -24 -28 -25 -34 -4 -54 13 -14 13
-16 1 -16 -8 0 -18 7 -21 16 -3 8 -10 12 -16 9 -19 -12 -10 12 15 39 13 14 20
26 15 26 -5 0 -17 -11 -26 -24 -8 -14 -21 -23 -29 -20 -7 3 -16 0 -20 -6 -7
-12 39 -72 49 -63 5 6 10 -11 8 -29 -1 -3 5 -9 14 -12 22 -8 -1 32 -39 67 -16
15 -27 31 -23 34 3 4 13 -2 21 -13 8 -10 15 -15 15 -10 0 6 6 2 13 -8 10 -13
20 -16 35 -11 l22 6 -22 20 -23 19 22 19 c12 10 19 21 16 25 -4 3 1 6 10 6 9
0 22 -9 30 -20 8 -11 17 -17 20 -13 4 3 7 -5 7 -18 l-1 -24 -23 26 c-20 23
-25 25 -41 13 -18 -14 -18 -14 1 -28 10 -8 21 -12 24 -10 2 3 -2 9 -10 14 -8
5 -11 12 -7 16 4 4 15 0 24 -9 13 -13 14 -19 3 -31 -7 -9 -19 -16 -26 -16 -8
0 -14 -4 -14 -10 0 -6 10 -5 25 2 14 6 25 15 25 19 0 4 9 10 19 14 22 7 19 29
-9 56 -23 22 -60 42 -60 31z"/>
<path d="M1980 2278 c0 -4 7 -8 15 -8 8 0 15 4 15 8 0 5 -7 9 -15 9 -8 0 -15
-4 -15 -9z"/>
<path d="M2420 2276 c0 -8 4 -17 9 -20 5 -4 7 3 4 14 -6 23 -13 26 -13 6z"/>
<path d="M2470 2280 c-13 -8 -12 -10 3 -10 9 0 17 5 17 10 0 12 -1 12 -20 0z"/>
<path d="M2565 2264 c-9 -14 -15 -28 -12 -30 2 -2 10 7 17 21 7 14 20 25 29
25 14 0 14 -2 1 -10 -8 -5 -10 -10 -5 -10 6 0 16 4 23 9 11 7 10 10 -3 15 -26
10 -32 8 -50 -20z"/>
<path d="M3008 2283 c6 -3 10 -9 6 -14 -3 -5 0 -9 5 -9 6 0 11 5 11 11 0 5 4
8 9 4 5 -3 12 -2 14 2 3 5 -9 9 -26 9 -18 1 -26 -1 -19 -3z"/>
<path d="M3053 2261 c-23 -19 -32 -38 -13 -26 6 3 10 1 10 -4 0 -6 5 -11 12
-11 9 0 9 3 1 11 -9 9 -8 15 2 25 19 19 27 17 20 -5 -3 -11 1 -24 11 -32 14
-12 14 -14 -2 -26 -26 -19 -8 -16 22 3 29 19 44 12 21 -10 -8 -8 -17 -12 -21
-9 -3 4 -6 0 -6 -7 0 -7 -3 -10 -6 -7 -7 6 -64 -52 -64 -64 0 -4 15 7 34 25
19 17 47 41 63 53 l28 21 -40 41 c-21 23 -42 41 -45 41 -3 -1 -15 -9 -27 -19z
m67 -26 c17 -21 5 -31 -15 -12 -8 9 -15 18 -15 21 0 11 18 6 30 -9z"/>
<path d="M3130 2258 c14 -13 33 -25 43 -26 9 -1 23 -3 30 -3 6 -1 20 2 29 6
10 4 24 -1 37 -14 23 -23 28 -16 8 9 -16 20 -33 23 -57 10 -15 -8 -23 -6 -39
11 -11 12 -25 18 -31 14 -6 -4 -19 -1 -28 6 -9 7 -6 1 8 -13z m40 -8 c0 -5 -2
-10 -4 -10 -3 0 -8 5 -11 10 -3 6 -1 10 4 10 6 0 11 -4 11 -10z"/>
<path d="M1920 2261 c0 -6 4 -13 10 -16 6 -3 7 1 4 9 -7 18 -14 21 -14 7z"/>
<path d="M2020 2259 c0 -5 5 -7 10 -4 6 3 10 8 10 11 0 2 -4 4 -10 4 -5 0 -10
-5 -10 -11z"/>
<path d="M2350 2265 c0 -10 53 -55 58 -50 5 4 -10 20 -41 44 -9 7 -17 10 -17
6z"/>
<path d="M2633 2259 c-7 -7 -22 -12 -34 -13 -22 -1 -41 -26 -19 -26 6 0 8 5 5
10 -11 18 11 11 29 -9 17 -18 17 -20 -1 -30 -10 -6 -14 -11 -10 -11 4 0 19 7
33 16 29 19 44 12 21 -10 -8 -8 -17 -12 -21 -9 -3 4 -6 0 -6 -7 0 -7 -3 -10
-6 -7 -7 6 -64 -52 -64 -64 0 -4 15 8 34 27 19 19 38 34 44 34 17 0 82 -57 74
-66 -4 -5 0 -3 9 4 11 8 19 8 26 1 7 -7 15 -2 27 15 9 15 12 26 7 26 -5 0 -13
-9 -16 -20 -4 -11 -11 -18 -16 -15 -14 9 21 55 37 48 8 -3 -1 11 -21 32 -19
21 -38 35 -42 32 -3 -4 -1 -7 6 -7 7 0 9 -5 6 -10 -4 -6 -11 -8 -16 -5 -5 4
-9 1 -9 -5 0 -7 7 -9 16 -6 9 4 23 1 30 -5 11 -9 10 -16 -7 -40 l-21 -29 -29
21 c-35 25 -31 39 4 16 22 -14 24 -14 35 4 8 12 8 19 2 19 -5 0 -10 -4 -10
-10 0 -5 -5 -10 -11 -10 -5 0 -7 4 -4 10 3 6 -1 7 -10 4 -12 -5 -14 -2 -8 12
7 18 6 18 -11 2 -25 -25 -43 -22 -21 2 18 20 18 21 -4 43 -17 17 -21 18 -15 5
8 -22 -2 -23 -22 -4 -12 13 -11 15 6 21 11 3 20 11 20 16 0 12 -4 11 -17 -2z"/>
<path d="M2740 2259 c0 -5 5 -7 10 -4 6 3 10 8 10 11 0 2 -4 4 -10 4 -5 0 -10
-5 -10 -11z"/>
<path d="M2980 2259 c0 -5 5 -7 10 -4 6 3 10 8 10 11 0 2 -4 4 -10 4 -5 0 -10
-5 -10 -11z"/>
<path d="M2000 2251 c0 -10 19 -25 25 -20 1 2 -3 10 -11 17 -8 7 -14 8 -14 3z"/>
<path d="M2957 2240 c3 -11 7 -20 9 -20 2 0 4 9 4 20 0 11 -4 20 -9 20 -5 0
-7 -9 -4 -20z"/>
<path d="M3198 2253 c7 -3 16 -2 19 1 4 3 -2 6 -13 5 -11 0 -14 -3 -6 -6z"/>
<path d="M3000 2240 c0 -5 5 -10 10 -10 6 0 10 5 10 10 0 6 -4 10 -10 10 -5 0
-10 -4 -10 -10z"/>
<path d="M3290 2245 c0 -14 19 -42 21 -30 0 6 4 1 9 -10 8 -17 9 -17 7 7 -1
15 -5 24 -10 21 -5 -3 -13 1 -18 8 -5 8 -9 10 -9 4z"/>
<path d="M1956 2227 c3 -10 9 -15 12 -12 3 3 0 11 -7 18 -10 9 -11 8 -5 -6z"/>
<path d="M2240 2220 c-13 -8 -12 -10 3 -10 9 0 17 5 17 10 0 12 -1 12 -20 0z"/>
<path d="M2500 2220 c0 -5 5 -10 11 -10 5 0 7 5 4 10 -3 6 -8 10 -11 10 -2 0
-4 -4 -4 -10z"/>
<path d="M2980 2220 c0 -5 5 -10 11 -10 5 0 7 5 4 10 -3 6 -8 10 -11 10 -2 0
-4 -4 -4 -10z"/>
<path d="M3340 2221 c0 -4 11 -7 25 -6 14 2 25 -1 25 -5 0 -5 11 -20 25 -34
14 -14 25 -31 25 -38 -1 -7 -10 -2 -22 12 -20 24 -20 24 -14 3 8 -27 1 -29
-20 -8 -18 17 -34 20 -34 4 0 -5 4 -8 9 -5 5 3 15 -2 22 -11 12 -14 11 -15 -8
-9 -12 4 -24 2 -28 -4 -3 -5 -11 -10 -18 -10 -8 0 -8 3 1 12 7 7 12 16 12 21
0 5 -9 -1 -19 -14 -11 -13 -22 -21 -26 -17 -4 4 0 14 9 23 26 26 18 31 -9 5
-14 -13 -25 -18 -25 -12 0 7 -5 12 -11 12 -5 0 -7 -4 -4 -10 3 -5 0 -10 -8
-10 -8 0 -20 -7 -27 -15 -9 -10 -9 -15 -1 -15 6 0 11 4 11 9 0 16 38 19 59 4
14 -9 21 -10 21 -3 0 6 5 8 10 5 6 -4 17 -1 25 5 12 10 20 9 38 -3 16 -10 28
-12 40 -5 11 5 17 5 17 -1 0 -5 16 7 35 26 20 20 38 33 41 30 4 -3 -5 -16 -18
-29 -13 -13 -17 -17 -8 -10 26 19 35 14 15 -8 -10 -11 -13 -20 -8 -20 6 0 14
7 17 16 6 15 9 15 29 1 16 -11 28 -12 41 -5 12 6 22 6 32 -2 8 -8 14 -8 14 -2
0 6 -6 12 -12 15 -7 2 -10 7 -7 11 8 9 40 -4 34 -13 -7 -12 34 -6 47 7 7 7 19
12 27 12 8 0 12 3 8 6 -3 4 -14 3 -24 -1 -10 -5 -26 -10 -37 -12 -15 -3 -17
-1 -6 12 6 8 15 14 18 13 19 -2 32 3 32 13 0 6 -5 7 -12 2 -7 -4 -20 -8 -28
-10 -8 -1 -16 -7 -18 -12 -2 -6 -8 -11 -14 -11 -5 0 -7 8 -3 19 3 10 -1 24
-10 31 -9 7 -15 8 -15 2 0 -6 6 -12 13 -15 9 -3 7 -10 -6 -23 -18 -19 -19 -18
-39 6 -20 24 -20 24 -14 3 7 -21 -7 -33 -17 -15 -2 4 -2 1 0 -6 1 -8 -3 -12
-9 -10 -7 3 -13 13 -13 23 0 30 -20 28 -53 -7 -33 -33 -40 -32 -21 4 6 12 7
18 1 14 -5 -3 -13 1 -16 10 -9 24 1 29 20 10 13 -13 19 -14 30 -5 16 13 15 30
-1 31 -6 0 -17 5 -25 11 -13 10 -13 10 -1 -5 7 -10 17 -15 22 -12 5 3 9 1 9
-4 0 -17 -13 -22 -28 -9 -8 6 -24 12 -35 12 -11 0 -22 6 -24 13 -3 8 1 10 14
5 10 -3 15 -3 11 1 -10 11 -88 18 -88 7z m90 -100 c0 -13 -28 -22 -35 -11 -3
4 1 11 7 13 20 8 28 8 28 -2z m160 0 c0 -13 -28 -22 -35 -11 -3 4 1 11 7 13
20 8 28 8 28 -2z"/>
<path d="M2540 2208 c8 -9 18 -14 23 -11 4 2 7 -1 7 -6 0 -6 5 -11 11 -11 5 0
8 4 4 9 -3 5 3 12 12 14 11 3 9 5 -7 5 -14 -1 -34 3 -45 8 -17 7 -18 6 -5 -8z"/>
<path d="M2690 2209 c0 -5 5 -7 10 -4 6 3 10 8 10 11 0 2 -4 4 -10 4 -5 0 -10
-5 -10 -11z"/>
<path d="M3020 2208 c8 -9 18 -14 23 -11 4 2 7 -1 7 -6 0 -6 5 -11 11 -11 5 0
8 4 4 9 -3 5 3 12 12 14 11 3 9 5 -7 5 -14 -1 -34 3 -45 8 -17 7 -18 6 -5 -8z"/>
<path d="M3170 2209 c0 -5 5 -7 10 -4 6 3 10 8 10 11 0 2 -4 4 -10 4 -5 0 -10
-5 -10 -11z"/>
<path d="M3217 2205 c-8 -8 -18 -11 -22 -7 -5 4 -5 -1 -2 -10 4 -11 -3 -23
-20 -36 -19 -14 -24 -24 -19 -40 7 -21 8 -21 32 8 14 16 23 34 20 39 -3 5 3
20 14 32 l20 24 20 -24 c11 -12 17 -27 14 -32 -3 -5 -1 -9 5 -9 5 0 13 5 16
10 3 6 1 10 -6 10 -7 0 -9 3 -6 6 7 7 -30 44 -44 44 -4 0 -14 -7 -22 -15z
m-35 -75 c-12 -12 -22 -15 -22 -9 0 13 32 40 39 33 3 -2 -5 -13 -17 -24z"/>
<path d="M2050 2200 c-9 -6 -10 -10 -3 -10 6 0 15 5 18 10 8 12 4 12 -15 0z"/>
<path d="M2262 2201 c-11 -7 -10 -10 3 -15 24 -9 32 -7 15 4 -13 8 -13 10 1
10 9 0 20 -7 23 -16 3 -8 10 -12 16 -9 9 6 14 -8 11 -27 0 -5 4 -8 9 -8 13 0
13 6 -1 31 -5 11 -14 17 -18 14 -5 -3 -11 2 -15 10 -6 17 -24 19 -44 6z"/>
<path d="M2449 2193 c-8 -9 -27 -22 -44 -30 -29 -14 -30 -14 -3 -8 23 4 26 2
21 -12 -5 -13 -1 -12 17 5 33 30 49 28 20 -3 -22 -24 -23 -26 -7 -42 9 -10 17
-12 17 -6 0 6 -6 13 -12 16 -7 2 -10 7 -7 11 8 8 40 -4 35 -13 -3 -4 4 -7 14
-7 10 0 16 4 14 8 -3 4 2 8 10 8 10 0 14 -6 10 -17 -3 -11 2 -8 13 7 10 13 27
33 37 44 15 15 16 18 3 13 -9 -3 -27 3 -42 15 -23 18 -28 19 -43 5 -9 -8 -22
-12 -29 -10 -6 2 -14 -1 -18 -6 -3 -6 -12 -11 -18 -11 -7 1 -1 9 12 20 12 11
27 17 32 14 5 -3 9 0 9 5 0 17 -26 13 -41 -6z m81 -12 c0 -5 9 -13 20 -16 29
-9 10 -37 -28 -40 -44 -4 -62 10 -40 32 10 9 21 13 25 9 5 -5 2 -11 -4 -13 -7
-3 -13 -9 -13 -15 0 -6 6 -5 15 2 9 7 13 21 10 31 -4 11 -2 19 4 19 6 0 11 -4
11 -9z"/>
<path d="M2535 2150 c-3 -5 -1 -10 4 -10 6 0 11 5 11 10 0 6 -2 10 -4 10 -3 0
-8 -4 -11 -10z"/>
<path d="M2929 2193 c-8 -9 -27 -22 -44 -30 -29 -14 -30 -14 -3 -8 23 4 26 2
21 -12 -5 -13 -1 -12 17 5 33 30 49 28 20 -3 -22 -24 -23 -26 -7 -42 9 -10 17
-12 17 -6 0 6 -6 13 -12 16 -7 2 -10 7 -7 11 8 8 40 -4 35 -13 -3 -4 4 -7 14
-7 10 0 16 4 14 8 -3 4 2 8 10 8 10 0 14 -6 10 -17 -3 -11 2 -8 13 7 10 13 27
33 37 44 15 15 16 18 3 13 -9 -3 -27 3 -42 15 -23 18 -28 19 -43 5 -9 -8 -22
-12 -29 -10 -6 2 -14 -1 -18 -6 -3 -6 -12 -11 -18 -11 -7 1 -1 9 12 20 12 11
27 17 32 14 5 -3 9 0 9 5 0 17 -26 13 -41 -6z m81 -12 c0 -5 9 -13 20 -16 29
-9 10 -37 -28 -40 -44 -4 -62 10 -40 32 10 9 21 13 25 9 5 -5 2 -11 -4 -13 -7
-3 -13 -9 -13 -15 0 -6 6 -5 15 2 9 7 13 21 10 31 -4 11 -2 19 4 19 6 0 11 -4
11 -9z"/>
<path d="M3015 2150 c-3 -5 -1 -10 4 -10 6 0 11 5 11 10 0 6 -2 10 -4 10 -3 0
-8 -4 -11 -10z"/>
<path d="M3513 2195 c0 -7 6 -11 14 -8 7 3 13 6 13 8 0 2 -6 5 -13 8 -8 3 -14
-1 -14 -8z"/>
<path d="M2243 2168 c23 -23 34 -29 40 -21 4 7 15 10 25 7 13 -4 12 -3 -2 7
-15 9 -21 9 -24 1 -2 -7 -14 -1 -30 13 -39 36 -46 30 -9 -7z"/>
<path d="M3300 2191 c0 -6 4 -13 10 -16 6 -3 7 1 4 9 -7 18 -14 21 -14 7z"/>
<path d="M3348 2193 c6 -2 18 -2 25 0 6 3 1 5 -13 5 -14 0 -19 -2 -12 -5z"/>
<path d="M3577 2174 c14 -14 27 -23 29 -21 5 5 -35 47 -46 47 -5 0 2 -12 17
-26z"/>
<path d="M3170 2182 c0 -5 -17 -18 -39 -30 -21 -12 -44 -29 -51 -37 -7 -8 13
1 44 21 48 32 69 54 51 54 -3 0 -5 -4 -5 -8z"/>
<path d="M3223 2175 c-3 -9 -3 -19 1 -22 3 -4 6 1 6 11 0 9 5 14 10 11 6 -4 8
-11 5 -16 -4 -5 -1 -9 4 -9 13 0 13 3 5 24 -8 20 -23 21 -31 1z"/>
<path d="M2030 2169 c0 -5 -5 -7 -12 -3 -7 4 -8 3 -4 -5 6 -9 11 -9 22 0 17
14 18 19 4 19 -5 0 -10 -5 -10 -11z"/>
<path d="M2207 2164 c3 -8 14 -19 24 -25 11 -5 19 -15 19 -21 0 -7 -5 -6 -15
2 -10 9 -15 9 -15 1 0 -6 5 -11 11 -11 5 0 7 -5 4 -11 -4 -6 2 -5 13 2 16 10
18 16 9 31 -7 10 -18 18 -25 18 -7 0 -11 4 -8 9 3 5 -1 11 -9 14 -9 4 -12 1
-8 -9z"/>
<path d="M2356 2165 c4 -8 8 -15 10 -15 2 0 4 7 4 15 0 8 -4 15 -10 15 -5 0
-7 -7 -4 -15z"/>
<path d="M2836 2165 c4 -8 8 -15 10 -15 2 0 4 7 4 15 0 8 -4 15 -10 15 -5 0
-7 -7 -4 -15z"/>
<path d="M3330 2169 c0 -5 5 -7 10 -4 6 3 10 8 10 11 0 2 -4 4 -10 4 -5 0 -10
-5 -10 -11z"/>
<path d="M3375 2170 c3 -5 8 -10 11 -10 2 0 4 5 4 10 0 6 -5 10 -11 10 -5 0
-7 -4 -4 -10z"/>
<path d="M3535 2170 c3 -5 8 -10 11 -10 2 0 4 5 4 10 0 6 -5 10 -11 10 -5 0
-7 -4 -4 -10z"/>
<path d="M3650 2169 c0 -5 5 -7 10 -4 6 3 10 8 10 11 0 2 -4 4 -10 4 -5 0 -10
-5 -10 -11z"/>
<path d="M2050 2155 c-7 -9 -11 -17 -9 -20 3 -2 10 5 17 15 14 24 10 26 -8 5z"/>
<path d="M2179 2163 c-1 -5 -1 -11 0 -16 1 -4 -10 -12 -24 -19 -22 -10 -23
-12 -8 -23 12 -9 23 -10 40 -2 26 12 30 35 8 43 -8 4 -12 10 -9 15 3 5 3 9 0
9 -3 0 -7 -3 -7 -7z m21 -33 c0 -12 -35 -31 -44 -23 -3 3 2 12 12 19 20 16 32
17 32 4z"/>
<path d="M3725 2160 c-3 -5 -1 -10 4 -10 6 0 11 5 11 10 0 6 -2 10 -4 10 -3 0
-8 -4 -11 -10z"/>
<path d="M3748 2140 c-7 -11 -18 -20 -24 -20 -6 0 -17 -7 -24 -15 -9 -10 -9
-15 -1 -15 6 0 11 4 11 9 0 16 38 19 59 4 12 -8 21 -10 21 -4 0 6 -4 11 -10
11 -5 0 -10 5 -10 11 0 6 7 9 14 6 10 -4 13 -1 9 9 -5 13 -8 13 -24 -2 -21
-19 -27 -6 -7 14 7 7 9 12 5 12 -4 0 -12 -9 -19 -20z"/>
<path d="M3821 2129 c-12 -11 -21 -21 -21 -23 0 -6 52 2 58 10 4 4 -1 4 -11 1
-13 -5 -17 -3 -14 5 2 7 11 12 21 10 20 -4 21 4 2 11 -8 3 -23 -3 -35 -14z"/>
<path d="M2282 2115 c-6 -14 -10 -25 -8 -25 2 0 11 11 20 25 9 14 13 25 8 25
-5 0 -14 -11 -20 -25z"/>
<path d="M2370 2131 c0 -6 -10 -8 -22 -6 -23 5 -48 -10 -48 -29 0 -6 4 -5 9 3
12 19 54 23 47 4 -8 -21 0 -15 18 12 9 14 12 25 6 25 -5 0 -10 -4 -10 -9z"/>
<path d="M2392 2120 c-18 -29 -15 -38 4 -12 9 13 14 25 12 27 -2 2 -9 -5 -16
-15z"/>
<path d="M2604 2118 c-19 -23 -19 -23 2 -5 23 19 44 22 44 6 0 -5 -4 -8 -9 -5
-5 3 -14 -1 -21 -9 -9 -10 -9 -15 -1 -15 6 0 11 5 11 11 0 5 4 8 9 5 5 -3 14
0 20 8 9 11 8 15 -5 20 -24 9 -29 8 -50 -16z"/>
<path d="M2842 2115 c-6 -14 -10 -25 -8 -25 2 0 11 11 20 25 9 14 13 25 8 25
-5 0 -14 -11 -20 -25z"/>
<path d="M2872 2120 c-18 -29 -15 -38 4 -12 9 13 14 25 12 27 -2 2 -9 -5 -16
-15z"/>
<path d="M3204 2118 l-19 -23 25 20 c14 11 27 21 29 22 2 2 0 3 -6 3 -5 0 -18
-10 -29 -22z"/>
<path d="M3882 2127 c-6 -7 -8 -18 -4 -24 6 -9 11 -6 20 7 13 22 0 36 -16 17z"/>
<path d="M2792 2118 c-7 -7 -12 -17 -12 -22 0 -6 5 -3 11 6 6 11 16 15 26 11
11 -4 14 -3 9 5 -9 15 -19 15 -34 0z"/>
<path d="M3109 2110 c-13 -10 -18 -19 -11 -20 6 0 12 5 12 10 0 6 7 10 15 10
8 0 15 5 15 10 0 14 -5 13 -31 -10z"/>
<path d="M3919 2113 c-13 -16 -12 -17 4 -4 9 7 17 15 17 17 0 8 -8 3 -21 -13z"/>
<path d="M3942 2109 c-8 -12 -8 -19 -2 -19 5 0 10 4 10 9 0 5 8 11 18 13 15 3
15 4 1 10 -9 4 -20 -1 -27 -13z"/>
<path d="M139 2115 c-3 -2 -19 -5 -37 -7 -18 -1 -32 -6 -32 -10 0 -12 74 -6
82 6 5 8 8 7 8 -1 0 -7 4 -13 8 -13 5 0 9 7 9 15 0 14 -27 21 -38 10z"/>
<path d="M2410 2105 c-11 -13 -10 -14 4 -9 9 3 16 10 16 15 0 13 -6 11 -20 -6z"/>
<path d="M2890 2105 c-11 -13 -10 -14 4 -9 9 3 16 10 16 15 0 13 -6 11 -20 -6z"/>
<path d="M3996 2107 c3 -10 9 -15 12 -12 3 3 0 11 -7 18 -10 9 -11 8 -5 -6z"/>
<path d="M2670 2102 c0 -5 7 -9 15 -9 8 0 12 4 9 9 -3 4 -9 8 -15 8 -5 0 -9
-4 -9 -8z"/>
<path d="M4046 2102 c-3 -5 1 -9 9 -9 8 0 12 4 9 9 -3 4 -7 8 -9 8 -2 0 -6 -4
-9 -8z"/>
<path d="M115 2049 c99 -20 92 -19 285 -54 161 -29 159 -28 330 -60 140 -26
146 -27 245 -44 33 -6 71 -13 85 -16 14 -3 65 -12 115 -21 49 -8 92 -17 95
-19 3 -1 27 -6 53 -9 26 -4 71 -11 100 -17 29 -5 68 -12 87 -15 19 -3 78 -14
130 -25 89 -17 95 -18 114 -1 14 12 232 233 295 297 2 2 -453 3 -1010 3 -1010
-1 -1014 -1 -924 -19z"/>
<path d="M2105 2020 c3 -6 1 -10 -5 -10 -11 0 5 -30 49 -88 17 -23 26 -29 32
-21 4 7 5 17 2 23 -4 6 1 6 13 2 14 -5 16 -4 7 5 -13 13 -37 3 -28 -12 4 -5 2
-9 -3 -9 -6 0 -13 7 -16 16 -8 22 -8 26 4 19 6 -3 10 -1 10 5 0 7 -8 9 -20 5
-11 -4 -20 -2 -20 4 0 6 5 11 10 11 6 0 10 5 10 11 0 8 -6 7 -17 -2 -15 -12
-16 -12 -10 4 4 11 3 16 -3 12 -6 -3 -10 -2 -10 4 0 5 5 11 12 13 7 3 5 7 -6
11 -10 4 -15 3 -11 -3z"/>
<path d="M134 1922 c18 -159 31 -235 62 -352 109 -405 363 -784 699 -1041 263
-202 609 -345 925 -384 96 -12 150 -15 150 -9 0 21 -72 350 -78 356 -4 3 -25
9 -47 12 -120 19 -193 37 -305 78 -247 89 -494 257 -656 446 -192 223 -325
499 -371 771 l-18 105 -150 31 c-82 17 -165 35 -183 38 l-34 7 6 -58z"/>
<path d="M3876 1945 c-60 -14 -133 -29 -161 -35 -52 -11 -53 -11 -59 -54 -18
-116 -40 -206 -74 -301 -98 -276 -265 -516 -491 -703 -203 -169 -482 -298
-731 -338 -58 -10 -106 -18 -107 -18 -2 -1 -60 -278 -69 -329 l-7 -39 64 7
c35 3 75 8 89 10 14 2 45 7 70 10 68 9 264 62 360 97 114 41 296 134 400 204
427 287 733 740 829 1227 20 98 23 120 36 235 8 63 13 62 -149 27z"/>
<path d="M2100 1936 c8 -10 8 -21 2 -32 -7 -12 -4 -27 10 -51 11 -19 17 -37
13 -41 -4 -4 -10 -1 -12 6 -3 6 -9 12 -15 12 -7 0 -6 -5 1 -14 9 -11 10 -20 1
-35 -12 -24 -13 -23 17 -26 12 -1 20 1 18 5 -3 4 4 15 15 25 11 10 20 13 20 7
0 -6 -4 -14 -10 -17 -5 -3 -10 -12 -10 -19 0 -14 37 -56 50 -56 12 0 129 117
123 124 -3 3 -16 -8 -30 -25 -18 -21 -31 -28 -44 -24 -11 4 -19 2 -19 -5 0 -6
4 -9 9 -5 5 3 12 1 16 -5 3 -5 0 -10 -7 -10 -7 0 -19 -9 -26 -20 -16 -27 -28
-25 -49 6 -16 25 -16 27 2 40 10 8 15 14 9 15 -5 0 0 5 11 10 18 9 18 9 -4 5
-15 -3 -31 3 -47 19 -28 28 -31 47 -6 38 10 -4 8 2 -8 14 -14 12 -22 24 -18
28 4 4 17 -2 29 -14 40 -37 38 -22 -2 19 -37 38 -65 56 -39 26z m50 -131 c0
-10 -40 -49 -45 -44 -6 7 24 49 36 49 5 0 9 -2 9 -5z"/>
<path d="M2208 1909 c-10 -5 -18 -15 -18 -22 0 -12 37 -41 53 -42 5 0 15 -8
22 -19 14 -18 35 -14 35 7 0 8 -3 8 -9 -2 -5 -8 -11 -9 -15 -3 -3 6 -2 13 4
17 12 7 14 26 3 23 -13 -4 -63 34 -57 43 7 11 3 11 -18 -2z m33 -30 c16 -11
29 -25 29 -31 0 -6 -6 -6 -15 2 -8 7 -15 10 -15 6 0 -3 -9 2 -20 11 -19 17
-26 33 -14 33 3 0 19 -9 35 -21z"/>
<path d="M2173 1840 c-1 -11 2 -20 5 -20 4 0 8 9 9 20 1 11 -2 20 -5 20 -4 0
-8 -9 -9 -20z"/>
<path d="M2145 1840 c3 -5 8 -10 11 -10 2 0 4 5 4 10 0 6 -5 10 -11 10 -5 0
-7 -4 -4 -10z"/>
<path d="M2201 1834 c0 -11 3 -14 6 -6 3 7 2 16 -1 19 -3 4 -6 -2 -5 -13z"/>
<path d="M2226 1813 c2 -7 -5 -17 -14 -22 -9 -6 -13 -11 -8 -11 5 0 18 7 28
17 11 9 18 11 18 5 0 -7 5 -12 10 -12 6 0 5 8 -2 20 -8 12 -15 15 -19 8 -4 -5
-9 -6 -11 -2 -3 5 -3 3 -2 -3z"/>
<path d="M2282 1754 c-48 -49 -45 -60 4 -15 l31 29 27 -24 c14 -14 26 -21 26
-16 0 6 -11 17 -25 26 -15 10 -22 22 -19 31 8 21 5 18 -44 -31z"/>
<path d="M2340 1780 c0 -6 7 -10 15 -10 8 0 15 2 15 4 0 2 -7 6 -15 10 -8 3
-15 1 -15 -4z"/>
<path d="M2180 1763 c0 -5 5 -15 10 -23 9 -13 11 -13 20 0 5 8 9 20 9 25 0 6
-3 4 -6 -2 -2 -7 -9 -13 -14 -13 -6 0 -7 5 -4 10 3 6 1 10 -4 10 -6 0 -11 -3
-11 -7z"/>
<path d="M2377 1749 c7 -7 15 -10 18 -7 3 3 -2 9 -12 12 -14 6 -15 5 -6 -5z"/>
<path d="M2121 1737 c2 -1 13 -9 24 -17 19 -14 19 -14 6 3 -7 9 -18 17 -24 17
-6 0 -8 -1 -6 -3z"/>
<path d="M2302 1732 c-10 -7 -6 -15 14 -35 15 -15 31 -27 36 -27 5 0 -2 11
-16 24 -26 23 -36 43 -16 31 6 -3 10 -1 10 4 0 13 -10 14 -28 3z"/>
<path d="M2340 1723 c0 -13 39 -58 45 -52 2 3 -7 18 -20 33 -14 16 -25 25 -25
19z"/>
<path d="M2380 1725 c0 -5 5 -17 10 -25 5 -8 10 -10 10 -5 0 6 -5 17 -10 25
-5 8 -10 11 -10 5z"/>
<path d="M2097 1712 c-3 -4 3 -18 14 -31 10 -13 19 -20 19 -15 0 4 -7 16 -17
26 -22 25 2 24 29 -1 11 -11 27 -17 35 -14 12 5 12 7 2 14 -7 4 -16 6 -20 3
-4 -2 -12 3 -19 11 -13 16 -36 20 -43 7z"/>
<path d="M2265 1699 c-4 -6 -4 -13 -1 -16 3 -4 6 -1 6 6 0 7 5 9 10 6 6 -4 8
-11 5 -16 -4 -5 -1 -9 4 -9 13 0 13 3 5 24 -7 18 -20 21 -29 5z"/>
<path d="M2208 1682 c-16 -9 -28 -20 -28 -25 0 -4 4 -6 9 -2 5 3 12 -3 15 -12
3 -11 4 -9 3 6 -1 13 4 26 11 28 6 3 10 -1 9 -9 -2 -7 -2 -10 0 -5 3 4 9 5 14
1 5 -3 9 0 9 5 0 6 -6 11 -12 11 -9 0 -8 4 2 10 27 17 -4 10 -32 -8z"/>
<path d="M2324 1663 c5 -8 5 -17 1 -21 -4 -4 -10 -1 -12 6 -3 6 -9 12 -15 12
-7 0 -7 -5 1 -13 6 -8 26 -14 43 -14 18 -1 26 2 18 5 -8 3 -21 12 -30 22 -8 9
-11 10 -6 3z"/>
<path d="M2140 1661 c0 -5 7 -11 15 -15 8 -3 15 -1 15 3 0 5 -7 11 -15 15 -8
3 -15 1 -15 -3z"/>
<path d="M2260 1660 c0 -5 5 -10 11 -10 5 0 7 5 4 10 -3 6 -8 10 -11 10 -2 0
-4 -4 -4 -10z"/>
<path d="M2350 1656 c0 -2 9 -6 20 -9 11 -3 18 -1 14 4 -5 9 -34 13 -34 5z"/>
<path d="M2096 1641 c-4 -5 2 -7 13 -4 10 3 22 0 25 -6 4 -6 12 -11 19 -11 14
0 -24 29 -40 30 -6 0 -14 -4 -17 -9z"/>
<path d="M2224 1629 c-17 -18 -19 -19 -30 -4 -7 9 -15 12 -18 7 -3 -6 1 -12 9
-16 9 -3 12 -12 8 -23 -4 -11 2 -8 19 10 31 33 41 34 33 5 -5 -18 -4 -19 4 -8
5 8 13 11 17 7 4 -4 0 -15 -9 -24 -15 -15 -17 -15 -23 0 -3 9 -11 14 -16 11
-7 -4 -7 -9 0 -13 6 -3 24 -24 41 -45 17 -21 31 -35 31 -29 0 5 -5 14 -12 21
-6 6 -9 15 -5 18 4 4 25 -12 47 -35 22 -23 40 -39 40 -35 0 4 -10 18 -22 31
-22 24 -12 33 11 11 11 -11 11 -9 0 9 -9 15 -17 19 -25 12 -16 -13 -36 14 -28
37 5 14 1 12 -13 -6 -12 -14 -24 -22 -28 -18 -4 4 0 14 9 23 20 21 20 22 -3
51 l-18 23 -19 -20z"/>
<path d="M2287 1623 c11 -10 22 -25 26 -33 5 -13 6 -13 6 1 1 16 -29 49 -44
49 -4 0 1 -8 12 -17z"/>
<path d="M2110 1621 c0 -6 6 -11 13 -11 8 0 7 -4 -3 -10 -11 -7 -6 -9 18 -6
18 2 36 7 40 11 4 5 0 6 -9 2 -9 -3 -26 1 -38 9 -12 9 -21 11 -21 5z"/>
<path d="M2333 1600 c1 -11 5 -20 9 -20 3 0 6 9 5 20 -1 11 -5 20 -9 20 -3 0
-6 -9 -5 -20z"/>
<path d="M2360 1615 c0 -5 5 -17 10 -25 5 -8 10 -10 10 -5 0 6 -5 17 -10 25
-5 8 -10 11 -10 5z"/>
<path d="M2165 1580 c-3 -5 -1 -10 4 -10 6 0 11 5 11 10 0 6 -2 10 -4 10 -3 0
-8 -4 -11 -10z"/>
<path d="M2097 1566 c-6 -16 31 -81 41 -71 4 4 1 10 -6 12 -10 4 -7 12 10 30
17 18 18 22 5 17 -18 -7 -24 11 -7 19 6 3 5 4 -2 3 -7 -2 -12 -13 -11 -25 2
-11 -2 -21 -7 -21 -10 0 -14 14 -11 38 2 16 -6 15 -12 -2z"/>
<path d="M2182 1561 c-11 -7 -10 -10 3 -15 24 -9 32 -7 15 4 -11 7 -12 10 -2
10 15 0 51 -39 52 -54 0 -5 -3 -7 -6 -3 -10 9 -54 -48 -54 -69 1 -12 6 -7 15
13 8 18 25 38 39 44 l25 12 -27 33 c-28 35 -38 39 -60 25z"/>
<path d="M2310 1560 c0 -5 7 -7 15 -4 8 4 15 8 15 10 0 2 -7 4 -15 4 -8 0 -15
-4 -15 -10z"/>
<path d="M2350 1555 c0 -8 4 -15 8 -15 5 0 9 7 9 15 0 8 -4 15 -9 15 -4 0 -8
-7 -8 -15z"/>
<path d="M2154 1529 c-3 -6 -3 -13 0 -16 3 -4 6 -1 6 6 0 7 9 3 22 -9 16 -15
24 -17 30 -8 11 18 10 28 -3 28 -5 0 -7 -4 -4 -10 3 -5 1 -10 -4 -10 -6 0 -11
4 -11 9 0 14 -29 22 -36 10z"/>
<path d="M2101 1496 c11 -15 11 -20 2 -23 -7 -3 -13 -10 -13 -16 0 -6 8 -4 17
6 16 16 16 18 -2 35 -18 16 -18 16 -4 -2z"/>
<path d="M2300 1500 c0 -5 5 -10 11 -10 5 0 7 5 4 10 -3 6 -8 10 -11 10 -2 0
-4 -4 -4 -10z"/>
<path d="M2150 1490 c0 -5 3 -9 8 -9 19 3 25 -2 12 -11 -9 -6 -10 -10 -3 -10
19 0 27 21 12 31 -19 12 -29 11 -29 -1z"/>
<path d="M2254 1475 c-4 -8 -9 -13 -14 -10 -4 2 -12 -7 -18 -20 -7 -15 -8 -25
-2 -25 6 0 10 5 10 10 0 14 38 50 53 50 8 0 7 -4 -3 -10 -8 -5 -10 -10 -5 -10
6 0 16 4 23 9 11 7 10 10 -3 15 -25 9 -35 7 -41 -9z"/>
<path d="M2118 1455 c-16 -22 -16 -24 10 -64 15 -23 28 -37 30 -32 2 6 13 2
25 -9 11 -11 23 -18 25 -15 9 9 -40 45 -51 38 -6 -4 -8 0 -4 10 4 11 2 14 -9
10 -18 -7 -18 4 1 23 17 18 20 34 4 34 -5 0 -8 -4 -5 -9 3 -5 -1 -14 -9 -21
-13 -11 -15 -9 -12 9 2 13 9 26 16 31 7 4 9 10 5 13 -5 3 -17 -5 -26 -18z"/>
<path d="M2323 1473 c4 -7 -1 -14 -13 -18 -11 -3 -20 -11 -20 -16 0 -6 3 -8 8
-6 4 3 13 -1 19 -9 7 -7 9 -15 4 -19 -5 -3 -12 -1 -16 5 -3 5 -12 10 -18 10
-7 0 -4 -5 5 -11 10 -5 15 -16 11 -25 -4 -10 3 -7 18 7 23 23 23 25 6 38 -15
11 -16 15 -6 22 9 5 16 2 21 -9 6 -15 7 -15 7 -1 1 9 -7 23 -16 30 -9 8 -14 9
-10 2z"/>
<path d="M2260 1440 c0 -5 5 -10 10 -10 6 0 10 5 10 10 0 6 -4 10 -10 10 -5 0
-10 -4 -10 -10z"/>
<path d="M2165 1420 c-3 -5 -1 -10 4 -10 6 0 11 5 11 10 0 6 -2 10 -4 10 -3 0
-8 -4 -11 -10z"/>
<path d="M2246 1415 c4 -10 -3 -13 -28 -10 -18 3 -26 2 -18 -2 8 -3 21 -13 28
-22 11 -14 11 -14 6 1 -5 14 0 16 28 13 18 -2 25 -1 15 1 -9 3 -15 9 -12 14 3
4 -2 10 -10 13 -9 4 -12 1 -9 -8z"/>
<path d="M2178 1388 c5 -5 16 -8 23 -6 8 3 3 7 -10 11 -17 4 -21 3 -13 -5z"/>
<path d="M2103 1369 c15 -21 12 -59 -4 -59 -5 0 -9 -5 -9 -11 0 -8 5 -8 15 1
8 7 15 19 15 27 0 8 5 11 10 8 6 -3 10 -1 10 4 0 6 -5 11 -12 11 -6 0 -9 3 -5
6 3 4 0 13 -8 20 -21 21 -28 17 -12 -7z"/>
<path d="M2307 1357 c-15 -17 -30 -27 -34 -23 -4 3 -1 12 5 18 7 7 12 17 12
23 0 5 -5 2 -11 -7 -5 -10 -15 -18 -21 -18 -7 0 -6 5 2 15 7 9 8 15 2 15 -5 0
-13 -8 -16 -17 -5 -12 -9 -14 -18 -5 -7 7 -16 12 -22 12 -5 0 -1 -6 10 -14 19
-14 19 -15 -5 -40 -14 -14 -21 -26 -17 -26 4 0 17 10 28 23 18 20 19 20 13 2
-4 -11 -8 -24 -9 -30 -4 -25 -19 -35 -39 -29 -20 6 -20 5 3 -14 14 -11 22 -23
18 -27 -4 -4 -14 0 -23 8 -16 17 -45 13 -45 -6 0 -8 3 -8 11 0 8 8 21 4 50
-15 21 -15 38 -31 39 -35 0 -5 -4 -5 -10 -2 -5 3 -10 1 -10 -5 0 -7 6 -10 13
-7 6 2 12 16 11 30 -1 15 3 27 7 27 5 0 9 5 9 11 0 8 -5 8 -15 -1 -8 -7 -12
-16 -9 -21 3 -5 1 -9 -5 -9 -22 0 -20 20 5 39 15 12 22 21 17 21 -5 0 -14 -5
-21 -12 -21 -21 -25 0 -4 22 11 12 18 29 15 36 -4 10 0 12 13 7 18 -7 18 -6 2
11 -24 24 -23 43 1 22 19 -17 21 -17 45 1 22 16 41 43 34 48 -2 1 -15 -12 -31
-28z"/>
<path d="M2150 1329 c0 -5 4 -8 9 -4 5 3 12 1 15 -4 4 -5 -2 -12 -11 -14 -16
-4 -16 -5 -1 -6 23 -1 34 19 17 30 -19 12 -29 11 -29 -2z"/>
<path d="M2317 1333 c-10 -9 -9 -23 1 -23 5 0 9 7 9 15 0 17 -1 18 -10 8z"/>
<path d="M2123 1301 c-8 -12 -8 -22 -1 -32 8 -11 9 -11 5 2 -3 9 0 22 6 28 6
6 9 13 6 15 -3 3 -10 -3 -16 -13z"/>
<path d="M2285 1300 c3 -5 8 -10 11 -10 2 0 4 5 4 10 0 6 -5 10 -11 10 -5 0
-7 -4 -4 -10z"/>
<path d="M2307 1287 c-3 -8 -2 -20 3 -26 5 -9 8 -4 8 13 0 29 -3 32 -11 13z"/>
<path d="M2143 1284 c3 -4 21 -8 38 -10 18 -2 30 -1 26 2 -3 4 -21 8 -38 10
-18 2 -30 1 -26 -2z"/>
<path d="M2256 1275 c-3 -8 -1 -15 3 -15 5 0 11 7 15 15 3 8 1 15 -3 15 -5 0
-11 -7 -15 -15z"/>
<path d="M2140 1260 c0 -5 5 -10 11 -10 5 0 7 5 4 10 -3 6 -8 10 -11 10 -2 0
-4 -4 -4 -10z"/>
<path d="M2276 1253 c-3 -10 -4 -28 -1 -41 2 -12 0 -22 -6 -22 -5 0 -9 -5 -9
-11 0 -5 4 -8 9 -5 5 3 11 -1 15 -9 3 -8 1 -17 -4 -20 -6 -4 -10 -1 -10 5 0 6
-5 8 -11 4 -8 -4 -6 -10 6 -17 18 -10 39 8 29 25 -3 4 -7 17 -9 29 -3 16 0 19
13 15 16 -6 16 -5 0 8 -10 7 -18 19 -18 27 0 11 2 11 10 -1 5 -8 11 -12 14
-10 2 3 -2 13 -9 23 -13 18 -13 18 -19 0z"/>
<path d="M2095 1240 c-3 -5 0 -7 8 -4 19 7 15 -35 -4 -47 -8 -5 -9 -9 -3 -9
16 0 30 21 32 48 1 22 -21 31 -33 12z"/>
<path d="M2158 1203 c0 -5 -2 -14 -2 -22 -1 -8 -7 -16 -14 -19 -6 -2 -10 2 -9
10 2 7 2 10 0 6 -3 -5 -11 -8 -18 -8 -8 0 -16 -4 -19 -9 -4 -5 4 -7 16 -4 13
3 19 1 13 -4 -18 -15 -41 -47 -27 -39 6 4 12 2 12 -3 0 -6 5 -11 11 -11 8 0 8
4 0 14 -17 20 13 43 34 26 8 -7 12 -17 8 -23 -3 -6 -1 -7 5 -3 13 8 5 36 -10
36 -5 0 -6 5 -2 12 5 8 13 5 25 -10 14 -18 18 -19 23 -6 3 9 6 19 6 24 0 11
-50 42 -52 33z m42 -40 c0 -9 -6 -7 -20 4 -11 10 -20 21 -20 25 0 5 9 3 20 -4
11 -7 20 -18 20 -25z"/>
<path d="M2210 1129 c0 -5 5 -7 10 -4 6 3 10 8 10 11 0 2 -4 4 -10 4 -5 0 -10
-5 -10 -11z"/>
<path d="M2144 1105 c19 -29 21 -44 4 -27 -24 24 -26 11 -3 -14 24 -26 24 -26
5 -47 -11 -11 -18 -23 -15 -25 9 -9 45 40 38 51 -4 6 0 8 10 4 11 -4 14 -2 10
9 -3 7 0 14 6 14 6 0 11 -4 11 -9 0 -5 8 -12 18 -15 13 -6 12 -2 -5 15 -22 22
-23 22 -43 4 -26 -23 -26 -5 0 25 26 30 26 38 0 15 -20 -18 -21 -18 -27 3 -3
12 -10 22 -15 22 -6 0 -3 -11 6 -25z"/>
<path d="M2237 1123 c-3 -5 -4 -19 -3 -32 1 -17 7 -25 23 -26 18 -1 20 1 12
17 -5 10 -14 18 -19 18 -6 0 -10 5 -10 11 0 5 5 7 10 4 6 -3 10 -1 10 4 0 13
-17 15 -23 4z m23 -37 c0 -3 -4 -8 -10 -11 -5 -3 -10 -1 -10 4 0 6 5 11 10 11
6 0 10 -2 10 -4z"/>
<path d="M2270 1110 c0 -5 5 -10 11 -10 5 0 7 5 4 10 -3 6 -8 10 -11 10 -2 0
-4 -4 -4 -10z"/>
<path d="M2205 1100 c-3 -5 -1 -10 4 -10 6 0 11 5 11 10 0 6 -2 10 -4 10 -3 0
-8 -4 -11 -10z"/>
<path d="M2092 1090 c2 -8 11 -21 21 -28 9 -7 17 -18 17 -24 0 -6 -7 -5 -17 3
-15 11 -16 11 -5 -1 17 -20 15 -35 -3 -20 -10 9 -15 9 -15 1 0 -6 5 -11 12
-11 6 0 8 -3 5 -7 -4 -3 1 -15 10 -26 17 -19 17 -19 -7 -13 -23 6 -23 6 -5 -5
11 -7 29 -21 39 -31 22 -20 36 -23 36 -7 0 5 -4 8 -9 5 -4 -3 -16 3 -26 14
-19 21 -8 29 12 9 14 -14 36 -2 27 13 -5 7 -2 9 7 6 11 -4 15 2 16 21 1 14 -1
19 -4 11 -3 -8 -12 -19 -20 -23 -7 -5 -11 -12 -8 -18 4 -5 2 -9 -4 -9 -15 0
-23 18 -11 25 5 3 10 11 10 18 0 6 -6 2 -14 -8 -12 -16 -16 -17 -30 -6 -14 12
-14 15 -1 34 20 28 19 29 -10 63 -15 16 -25 22 -23 14z"/>
<path d="M2246 1034 c-5 -14 -4 -15 9 -4 17 14 19 20 6 20 -5 0 -12 -7 -15
-16z"/>
<path d="M2210 1030 c0 -5 5 -10 11 -10 5 0 7 5 4 10 -3 6 -8 10 -11 10 -2 0
-4 -4 -4 -10z"/>
<path d="M2183 1015 c-3 -9 -3 -18 -1 -21 3 -3 8 4 11 16 6 23 -1 27 -10 5z"/>
<path d="M2228 1003 c6 -2 18 -2 25 0 6 3 1 5 -13 5 -14 0 -19 -2 -12 -5z"/>
<path d="M2220 978 c0 -11 38 -10 44 1 3 5 -5 8 -19 7 -14 0 -25 -4 -25 -8z"/>
<path d="M2205 946 c-14 -10 -17 -18 -10 -32 9 -18 12 -17 37 9 31 31 23 37
-10 7 -12 -12 -22 -15 -22 -9 0 6 8 18 18 25 23 18 11 18 -13 0z"/>
<path d="M2094 938 c1 -7 10 -28 20 -46 10 -19 14 -37 10 -40 -4 -4 -9 -1 -11
6 -3 6 -9 12 -15 12 -7 0 -6 -5 1 -14 9 -11 10 -20 1 -35 -12 -24 -13 -23 17
-26 12 -1 20 1 18 5 -3 4 2 13 9 19 11 10 18 6 32 -18 20 -34 32 -39 40 -16 4
8 11 12 17 8 6 -4 7 -1 3 6 -5 7 -10 10 -13 7 -6 -6 -63 62 -63 75 0 5 -5 9
-11 9 -8 0 -7 -5 1 -15 7 -9 10 -18 7 -21 -7 -8 -48 57 -42 67 3 4 -2 12 -9
18 -11 9 -14 9 -12 -1z m56 -93 c0 -10 -40 -49 -45 -44 -6 7 24 49 36 49 5 0
9 -2 9 -5z m60 -60 c-1 -5 -12 4 -25 20 -14 17 -25 35 -25 40 1 6 12 -3 25
-20 14 -16 25 -34 25 -40z"/>
<path d="M2230 900 c-23 -32 -19 -40 6 -15 9 8 12 15 8 15 -3 0 -1 7 6 15 7 8
10 15 7 15 -3 0 -15 -13 -27 -30z"/>
<path d="M2130 910 c0 -5 5 -10 11 -10 5 0 7 5 4 10 -3 6 -8 10 -11 10 -2 0
-4 -4 -4 -10z"/>
<path d="M2181 878 c17 -32 48 -62 56 -55 3 4 0 7 -7 7 -9 0 -7 7 6 22 15 19
16 20 2 9 -15 -11 -21 -11 -33 -1 -8 7 -15 19 -15 26 0 8 -5 14 -10 14 -7 0
-7 -8 1 -22z"/>
<path d="M2150 799 c0 -13 34 -59 45 -59 14 0 35 14 35 23 0 7 -4 7 -12 -1
-18 -18 -27 -15 -48 21 -11 17 -20 25 -20 16z"/>
<path d="M2121 777 c2 -1 13 -9 24 -17 19 -14 19 -14 6 3 -7 9 -18 17 -24 17
-6 0 -8 -1 -6 -3z"/>
<path d="M2097 753 c-3 -4 3 -19 14 -32 10 -13 19 -20 19 -15 0 4 -7 16 -17
26 -14 16 -14 18 0 18 8 0 18 -5 20 -10 3 -6 4 -5 3 2 -3 15 -32 23 -39 11z"/>
<path d="M2150 732 c0 -15 11 -21 27 -15 12 5 12 7 1 14 -17 11 -28 11 -28 1z"/>
<path d="M2140 701 c0 -5 7 -11 15 -15 8 -3 15 -1 15 3 0 5 -7 11 -15 15 -8 3
-15 1 -15 -3z"/>
<path d="M2180 700 c0 -6 4 -9 9 -5 5 3 12 -2 14 -10 4 -12 5 -12 3 1 -1 19
-26 32 -26 14z"/>
<path d="M2096 681 c-4 -5 2 -7 13 -4 10 3 22 0 25 -6 4 -6 12 -11 19 -11 14
0 -24 29 -40 30 -6 0 -14 -4 -17 -9z"/>
<path d="M2176 671 c-3 -5 1 -12 10 -15 22 -8 25 -4 9 11 -8 7 -16 9 -19 4z"/>
<path d="M2114 657 c3 -11 0 -20 -9 -23 -8 -4 -15 -11 -15 -16 0 -6 6 -5 15 2
9 8 15 9 15 2 0 -6 -5 -14 -11 -17 -7 -5 -2 -16 12 -31 12 -13 17 -24 11 -24
-6 0 -14 5 -17 10 -3 6 -12 10 -18 10 -7 0 -5 -5 5 -10 9 -6 15 -18 14 -27 -2
-10 -1 -12 1 -5 3 7 8 10 12 7 5 -2 13 7 20 21 7 16 7 23 1 19 -6 -4 -17 -1
-25 5 -13 11 -12 17 7 44 12 17 18 28 13 24 -4 -4 -14 0 -22 10 -14 16 -14 16
-9 -1z"/>
<path d="M2148 620 c-9 -17 -14 -30 -9 -30 4 0 14 11 21 25 7 13 18 22 23 18
6 -3 7 -1 3 5 -11 18 -20 14 -38 -18z"/>
<path d="M2173 609 c-13 -13 -6 -39 9 -39 6 0 6 6 -1 14 -10 11 -8 17 6 25 10
6 13 11 8 11 -6 0 -16 -5 -22 -11z"/>
<path d="M2160 555 c0 -2 6 -8 13 -14 10 -8 14 -7 14 2 0 8 -6 14 -14 14 -7 0
-13 -1 -13 -2z"/>
<path d="M2150 530 c0 -5 5 -10 11 -10 5 0 7 5 4 10 -3 6 -8 10 -11 10 -2 0
-4 -4 -4 -10z"/>
<path d="M2126 504 c-5 -13 -9 -14 -21 -4 -10 9 -15 9 -15 1 0 -6 5 -11 12
-11 6 0 9 -3 5 -6 -8 -8 17 -56 38 -74 13 -11 15 -10 9 5 -5 11 -4 16 3 12 5
-3 10 0 10 8 0 11 -4 12 -14 3 -19 -16 -28 -2 -10 16 8 8 18 12 21 8 4 -3 4 1
0 11 -3 9 -10 17 -16 17 -5 0 -7 -4 -4 -9 3 -5 -1 -14 -9 -21 -13 -11 -15 -10
-12 6 1 11 6 25 11 32 4 7 6 15 3 18 -2 3 -7 -3 -11 -12z"/>
<path d="M2158 503 c7 -3 16 -2 19 1 4 3 -2 6 -13 5 -11 0 -14 -3 -6 -6z"/>
<path d="M2115 402 c17 -16 34 -26 39 -24 5 3 -3 12 -18 21 -14 8 -26 19 -26
23 0 5 -6 8 -12 8 -7 0 1 -13 17 -28z"/>
<path d="M2097 384 c-3 -4 -2 -15 3 -25 6 -9 7 -24 4 -32 -9 -23 16 -31 34
-11 16 17 16 17 -1 5 -9 -8 -20 -11 -24 -7 -4 3 2 12 11 19 15 11 17 17 7 35
-12 22 -23 27 -34 16z m27 -20 c10 -25 -1 -29 -14 -5 -6 12 -7 21 -1 21 5 0
12 -7 15 -16z"/>
<path d="M2103 279 c16 -9 13 -49 -4 -49 -5 0 -9 -5 -9 -10 0 -6 7 -6 19 2 11
6 17 18 13 26 -4 11 -1 13 9 7 12 -7 12 -6 1 7 -10 13 -10 17 0 21 7 2 0 4
-16 4 -22 0 -25 -2 -13 -8z"/>
<path d="M2111 206 c-9 -11 -9 -16 1 -22 7 -4 10 -4 6 1 -4 4 -3 14 3 22 6 7
9 13 6 13 -2 0 -10 -6 -16 -14z"/>
<path d="M2090 166 c0 -2 7 -7 16 -10 8 -3 12 -2 9 4 -6 10 -25 14 -25 6z"/>
</g>
</svg>
