<?xml version="1.0" standalone="no"?>
<!DOCTYPE svg PUBLIC "-//W3C//DTD SVG 20010904//EN"
 "http://www.w3.org/TR/2001/REC-SVG-20010904/DTD/svg10.dtd">
<svg version="1.0" xmlns="http://www.w3.org/2000/svg"
 width="600.000000pt" height="600.000000pt" viewBox="0 0 600.000000 600.000000"
 preserveAspectRatio="xMidYMid meet">
<metadata>
Created by potrace 1.11, written by Peter Selinger 2001-2013
</metadata>
<g transform="translate(0.000000,600.000000) scale(0.100000,-0.100000)"
fill="#000000" stroke="none">
<path d="M2755 5989 c-1085 -89 -2044 -766 -2491 -1760 -422 -937 -332 -2028
239 -2889 153 -232 375 -478 587 -651 109 -89 288 -215 375 -264 l50 -28 -47
44 c-39 37 -45 47 -38 66 6 15 21 23 52 28 24 4 48 11 53 15 6 5 31 11 56 15
49 7 62 -1 72 -45 3 -14 9 -38 15 -55 51 -152 50 -170 -8 -140 -17 9 -34 14
-36 12 -3 -3 35 -24 83 -47 784 -375 1715 -384 2518 -23 471 211 896 559 1201
983 728 1013 752 2374 59 3415 -602 903 -1657 1413 -2740 1324z m1050 -234
c98 -17 186 -42 199 -55 5 -5 17 -10 25 -10 9 0 45 -14 81 -32 244 -120 448
-333 554 -578 59 -138 83 -238 98 -420 l13 -145 30 2 c216 16 239 15 318 -1
197 -42 318 -107 448 -237 79 -80 126 -150 168 -249 108 -254 84 -527 -66
-762 -105 -163 -271 -288 -465 -349 -64 -20 -93 -23 -228 -22 -158 1 -210 10
-320 59 -84 37 -205 121 -269 188 -19 20 -39 36 -43 36 -5 0 -49 -38 -99 -85
-134 -127 -256 -179 -424 -179 -98 0 -170 17 -261 59 -98 46 -218 162 -283
275 -24 41 -45 77 -47 79 -6 7 -36 -22 -45 -44 -14 -29 -28 -51 -81 -130 -144
-213 -381 -375 -608 -416 -183 -33 -225 -33 -420 1 -170 29 -354 132 -501 281
-48 48 -95 101 -105 118 -22 37 -51 40 -64 7 -5 -13 -12 -25 -17 -27 -4 -2
-17 -22 -28 -44 -25 -50 -149 -174 -201 -200 -21 -11 -45 -26 -52 -32 -7 -7
-22 -13 -31 -13 -10 0 -24 -7 -31 -15 -8 -9 -30 -15 -59 -15 -26 0 -53 -6 -59
-12 -17 -17 -167 -17 -184 0 -6 6 -33 12 -59 12 -29 0 -53 6 -63 15 -8 8 -24
15 -35 15 -11 0 -26 7 -35 15 -8 8 -21 15 -28 15 -25 0 -168 128 -168 150 0 5
-6 10 -13 10 -7 0 -18 12 -24 28 -14 30 -32 59 -50 80 -7 7 -13 27 -13 43 0
17 -6 32 -15 35 -13 5 -15 36 -15 189 0 150 3 186 15 199 8 8 15 24 15 35 0
11 7 26 15 34 7 8 17 26 21 41 3 14 12 26 19 26 7 0 16 8 19 18 16 43 109 142
134 142 6 0 12 4 14 8 4 11 73 52 87 52 7 0 19 7 27 15 9 8 30 15 47 15 18 0
41 7 51 15 13 10 44 15 93 15 l73 0 0 33 c0 17 -7 41 -15 51 -8 11 -15 36 -15
56 0 20 -7 45 -15 56 -21 28 -21 282 0 310 8 10 15 38 15 60 0 24 6 47 15 54
8 7 15 23 15 37 0 13 7 26 15 29 8 4 15 17 15 30 0 14 6 27 14 30 8 3 17 15
20 27 3 12 18 36 33 54 16 17 37 43 48 58 11 15 22 30 25 34 3 4 28 25 55 46
28 22 52 44 54 48 2 5 13 13 25 18 11 5 35 18 51 29 17 11 37 22 45 25 8 3 28
13 43 21 16 7 33 14 39 14 5 0 24 6 41 14 42 19 166 39 242 40 74 1 211 -21
247 -40 14 -8 33 -14 42 -14 9 0 47 -16 84 -36 132 -71 224 -153 334 -299 62
-82 80 -98 90 -83 4 7 8 25 8 40 0 15 5 39 11 55 7 15 15 46 19 68 16 85 85
254 131 323 16 24 29 47 29 52 0 4 3 10 8 12 4 2 21 23 37 48 83 125 307 302
465 370 214 91 444 117 675 75z m-3635 -2760 c0 -647 -2 -735 -15 -735 -12 0
-15 15 -15 75 0 68 -2 75 -20 75 -18 0 -20 7 -20 79 0 58 -4 82 -15 91 -12 10
-15 43 -15 179 0 132 -3 171 -15 187 -18 23 -20 91 -2 96 9 4 13 53 15 189 3
147 6 186 18 192 10 6 14 29 14 87 0 73 2 80 20 80 18 0 20 7 20 70 0 56 3 70
15 70 13 0 15 -88 15 -735z m3957 -341 c8 -33 20 -81 28 -109 18 -70 18 -68
16 -87 -1 -12 -13 -19 -38 -24 -21 -4 -49 -12 -63 -19 -14 -7 -41 -15 -61 -19
-33 -6 -36 -4 -52 29 -9 20 -21 53 -26 73 -5 20 -17 64 -26 97 -18 60 -22 101
-12 112 3 3 37 9 75 13 38 4 78 12 88 18 28 16 53 -14 71 -84z m-2468 53 c16
-14 51 -34 71 -42 8 -4 22 -11 30 -16 8 -5 22 -12 30 -15 8 -3 22 -10 30 -15
8 -5 25 -13 38 -19 14 -6 22 -18 22 -33 0 -13 4 -27 10 -33 5 -5 14 -30 19
-54 6 -25 13 -57 17 -72 5 -24 2 -29 -35 -46 -23 -11 -59 -23 -81 -27 -22 -4
-42 -11 -46 -16 -10 -17 -46 -9 -65 14 -10 12 -19 36 -19 52 0 17 -7 42 -14
57 -8 16 -18 48 -22 73 -3 25 -10 48 -15 50 -4 3 -11 26 -15 50 -3 25 -10 48
-15 51 -11 6 -12 48 -2 57 8 8 42 -1 62 -16z m3170 -19 c83 -12 98 -21 106
-60 7 -32 27 -104 47 -163 5 -16 14 -46 18 -65 5 -19 19 -71 31 -114 21 -77
21 -79 4 -93 -11 -7 -28 -13 -40 -13 -12 0 -25 -4 -30 -9 -6 -5 -32 -14 -60
-19 -69 -15 -60 -32 -140 258 -7 25 -20 68 -28 95 -9 28 -19 67 -22 88 -4 20
-11 40 -16 43 -10 6 -12 67 -3 76 3 4 20 2 37 -4 18 -6 61 -14 96 -20z m-3766
-85 c6 -16 17 -34 24 -41 7 -7 13 -30 13 -50 0 -20 7 -46 15 -56 8 -11 15 -34
15 -50 1 -17 7 -42 15 -56 8 -14 14 -39 15 -56 0 -16 7 -39 15 -50 8 -10 15
-35 15 -55 0 -43 -28 -67 -88 -76 -20 -3 -46 -12 -57 -19 -11 -8 -34 -14 -52
-14 -27 0 -34 5 -39 27 -4 15 -13 38 -20 52 -8 14 -14 40 -14 58 0 17 -5 33
-11 35 -6 2 -13 26 -17 53 -3 27 -11 56 -19 63 -7 7 -13 31 -13 51 0 23 -6 44
-15 51 -12 10 -15 28 -13 69 l3 56 80 5 c44 3 89 10 100 17 29 18 34 16 48
-14z m1540 -65 c9 -7 21 -31 26 -53 22 -87 35 -131 46 -160 20 -48 27 -115 14
-131 -6 -8 -22 -14 -36 -14 -13 0 -36 -6 -51 -14 -44 -22 -96 -28 -116 -13
-10 7 -22 31 -26 53 -4 21 -13 53 -18 69 -6 17 -18 57 -27 90 -9 33 -21 74
-26 91 -18 60 -11 65 116 82 39 5 73 10 76 10 3 1 13 -4 22 -10z m849 -133
c15 -38 28 -85 48 -165 4 -19 13 -48 18 -65 6 -16 18 -59 28 -95 9 -36 22 -85
30 -110 54 -181 54 -184 2 -195 -18 -4 -37 -11 -43 -15 -17 -13 -118 -31 -125
-23 -7 8 -25 62 -55 168 -10 33 -23 80 -31 105 -14 47 -45 156 -70 250 -8 30
-19 69 -24 86 -6 17 -10 36 -10 42 0 14 80 52 108 52 11 0 35 6 53 14 40 17
47 12 71 -49z m866 -464 c7 -4 19 -30 26 -57 27 -96 66 -230 83 -281 11 -33
14 -56 8 -62 -6 -5 -41 -18 -80 -29 -122 -37 -123 -37 -133 -11 -12 31 -36
108 -56 184 -9 33 -23 80 -31 105 -8 25 -15 60 -15 77 0 27 4 34 28 39 15 3
45 12 67 20 34 11 53 16 85 23 3 0 11 -3 18 -8z m-2240 -73 c6 -7 13 -31 17
-53 4 -22 11 -44 15 -50 5 -5 11 -28 15 -50 4 -22 13 -54 20 -70 21 -46 24
-135 5 -145 -29 -14 -85 -32 -134 -42 -40 -8 -51 -7 -67 8 -10 9 -19 30 -19
46 0 16 -6 41 -14 56 -7 15 -17 45 -21 67 -4 22 -10 45 -14 50 -12 15 -33 134
-26 145 3 5 22 12 43 16 20 4 48 13 62 20 32 17 104 18 118 2z m774 -185 c8
-16 19 -44 23 -63 3 -19 12 -53 20 -75 12 -36 23 -76 60 -205 38 -136 46 -165
61 -213 21 -70 23 -117 4 -127 -28 -14 -85 -32 -133 -43 -67 -14 -68 -13 -108
146 -6 23 -14 50 -19 59 -6 9 -13 36 -16 60 -4 24 -11 48 -15 54 -5 6 -13 31
-18 55 -5 24 -14 58 -19 74 -6 17 -18 57 -27 90 -9 33 -21 74 -26 91 -5 17 -9
37 -9 46 0 16 60 42 133 57 21 5 41 11 44 15 13 13 29 5 45 -21z m2365 -43 c7
-25 19 -67 27 -95 79 -278 87 -308 84 -328 -2 -14 -22 -26 -73 -43 -38 -13
-82 -24 -98 -24 -30 0 -36 10 -62 105 -29 104 -57 202 -72 250 -8 28 -17 71
-20 97 l-5 47 39 7 c21 4 52 13 68 20 17 8 46 13 65 11 32 -2 36 -5 47 -47z
m-3869 -15 c2 -16 10 -38 18 -49 8 -11 14 -36 14 -56 0 -19 7 -44 15 -54 8
-11 15 -34 15 -51 0 -17 7 -40 15 -51 8 -10 15 -32 15 -49 0 -16 7 -43 15 -59
8 -15 15 -40 15 -55 0 -14 7 -39 15 -55 25 -48 20 -82 -19 -105 -18 -12 -44
-21 -57 -21 -13 -1 -35 -7 -49 -15 -14 -8 -37 -14 -52 -15 -21 0 -30 8 -45 43
-20 43 -37 98 -54 176 -5 24 -13 49 -18 55 -5 6 -12 32 -16 59 -4 26 -11 50
-16 52 -4 3 -11 26 -15 52 -4 25 -13 58 -20 72 -19 36 -17 91 3 113 9 10 30
18 47 18 17 1 42 7 56 15 14 8 45 14 70 12 42 -2 45 -4 48 -32z m2440 -402
c12 -38 30 -102 42 -143 11 -41 24 -88 29 -105 5 -16 19 -64 30 -105 12 -41
28 -95 36 -120 18 -55 19 -106 3 -117 -12 -7 -59 -22 -135 -42 -43 -12 -69 8
-82 61 -13 53 -36 138 -55 203 -9 28 -21 70 -27 95 -6 25 -17 61 -24 80 -20
56 -37 122 -42 166 l-5 41 69 21 c140 44 137 44 161 -35z m810 -234 c8 -24 20
-66 27 -94 7 -27 23 -83 34 -123 12 -40 19 -77 17 -81 -3 -4 -31 -16 -63 -25
-32 -10 -75 -24 -96 -32 l-38 -13 -18 42 c-10 24 -22 58 -26 77 -7 37 -29 109
-51 172 -20 56 -4 88 47 88 14 0 30 5 35 10 11 11 91 29 109 26 5 -2 16 -22
23 -47z m-2276 14 c10 -9 18 -24 18 -33 0 -15 18 -79 54 -200 36 -117 29 -144
-38 -154 -25 -4 -48 -11 -51 -16 -3 -4 -23 -11 -46 -15 -49 -8 -79 13 -79 57
0 16 -6 41 -14 56 -7 15 -16 44 -20 66 -4 21 -11 46 -16 55 -14 27 -34 131
-26 138 10 10 76 34 125 44 24 5 47 11 49 14 10 9 25 5 44 -12z m879 -543 c15
-41 29 -86 58 -195 15 -56 0 -65 -115 -65 -96 0 -124 11 -124 47 0 8 -7 36
-15 62 -30 96 -37 129 -31 139 5 8 108 44 161 56 38 8 50 1 66 -44z"/>
<path d="M1520 395 c0 -2 10 -10 23 -16 20 -11 21 -11 8 4 -13 16 -31 23 -31
12z"/>
<path d="M1570 366 c0 -2 7 -7 16 -10 8 -3 12 -2 9 4 -6 10 -25 14 -25 6z"/>
</g>
</svg>
